<?xml version="1.0" encoding="utf-8" standalone="no"?>
<!DOCTYPE svg PUBLIC "-//W3C//DTD SVG 1.1//EN"
  "http://www.w3.org/Graphics/SVG/1.1/DTD/svg11.dtd">
<svg xmlns:xlink="http://www.w3.org/1999/xlink" width="720.206904pt" height="298.14077pt" viewBox="0 0 720.206904 298.14077" xmlns="http://www.w3.org/2000/svg" version="1.1">
 <metadata>
  <rdf:RDF xmlns:dc="http://purl.org/dc/elements/1.1/" xmlns:cc="http://creativecommons.org/ns#" xmlns:rdf="http://www.w3.org/1999/02/22-rdf-syntax-ns#">
   <cc:Work>
    <dc:type rdf:resource="http://purl.org/dc/dcmitype/StillImage"/>
    <dc:date>2023-02-16T12:07:31.960531</dc:date>
    <dc:format>image/svg+xml</dc:format>
    <dc:creator>
     <cc:Agent>
      <dc:title>Matplotlib v3.7.0, https://matplotlib.org/</dc:title>
     </cc:Agent>
    </dc:creator>
   </cc:Work>
  </rdf:RDF>
 </metadata>
 <defs>
  <style type="text/css">*{stroke-linejoin: round; stroke-linecap: butt}</style>
 </defs>
 <g id="figure_1">
  <g id="patch_1">
   <path d="M 0 298.14077 
L 720.206904 298.14077 
L 720.206904 0 
L 0 0 
z
" style="fill: #ffffff"/>
  </g>
  <g id="axes_1">
   <g id="patch_2">
    <path d="M 43.406904 242.580208 
L 713.006904 242.580208 
L 713.006904 20.820208 
L 43.406904 20.820208 
z
" style="fill: #ffffff"/>
   </g>
   <g id="matplotlib.axis_1">
    <g id="xtick_1">
     <g id="line2d_1">
      <defs>
       <path id="m3ad59c6ddd" d="M 0 0 
L 0 -3.5 
" style="stroke: #000000; stroke-width: 1.7"/>
      </defs>
      <g>
       <use xlink:href="#m3ad59c6ddd" x="122.993583" y="242.580208" style="stroke: #000000; stroke-width: 1.7"/>
      </g>
     </g>
     <g id="line2d_2">
      <defs>
       <path id="mc79ef60419" d="M 0 0 
L 0 3.5 
" style="stroke: #000000; stroke-width: 1.7"/>
      </defs>
      <g>
       <use xlink:href="#mc79ef60419" x="122.993583" y="20.820208" style="stroke: #000000; stroke-width: 1.7"/>
      </g>
     </g>
     <g id="text_1">
      <!-- $\mathdefault{2.5}$ -->
      <g transform="translate(113.645057 257.957933) scale(0.15 -0.15)">
       <defs>
        <path id="CMSS17-32" d="M 1651 1353 
C 1830 1538 2099 1761 2285 1984 
C 2464 2201 2701 2507 2701 2953 
C 2701 3655 2227 4288 1421 4288 
C 787 4288 422 3891 250 3272 
L 499 2928 
C 640 3508 838 3878 1338 3878 
C 1888 3878 2195 3431 2195 2940 
C 2195 2354 1747 1901 1408 1563 
C 1030 1187 659 805 301 409 
L 301 0 
L 2701 0 
L 2701 435 
L 1613 435 
C 1536 435 1459 428 1382 428 
L 742 428 
L 742 435 
L 1651 1353 
z
" transform="scale(0.015625)"/>
        <path id="CMSS17-2e" d="M 1088 512 
L 576 512 
L 576 0 
L 1088 0 
L 1088 512 
z
" transform="scale(0.015625)"/>
        <path id="CMSS17-35" d="M 934 3814 
L 2502 3814 
L 2502 4224 
L 467 4224 
L 467 1830 
L 896 1830 
C 1011 2103 1248 2304 1555 2304 
C 1843 2304 2163 2044 2163 1299 
C 2163 502 1709 268 1376 268 
C 966 268 589 521 422 871 
L 218 508 
C 512 51 992 -128 1376 -128 
C 2118 -128 2701 508 2701 1286 
C 2701 2083 2182 2694 1562 2694 
C 1338 2694 1120 2617 934 2464 
L 934 3814 
z
" transform="scale(0.015625)"/>
       </defs>
       <use xlink:href="#CMSS17-32" transform="scale(0.996264)"/>
       <use xlink:href="#CMSS17-2e" transform="translate(46.843624 0) scale(0.996264)"/>
       <use xlink:href="#CMSS17-35" transform="translate(72.867828 0) scale(0.996264)"/>
      </g>
     </g>
    </g>
    <g id="xtick_2">
     <g id="line2d_3">
      <g>
       <use xlink:href="#m3ad59c6ddd" x="202.747745" y="242.580208" style="stroke: #000000; stroke-width: 1.7"/>
      </g>
     </g>
     <g id="line2d_4">
      <g>
       <use xlink:href="#mc79ef60419" x="202.747745" y="20.820208" style="stroke: #000000; stroke-width: 1.7"/>
      </g>
     </g>
     <g id="text_2">
      <!-- $\mathdefault{5.0}$ -->
      <g transform="translate(193.399219 257.957933) scale(0.15 -0.15)">
       <defs>
        <path id="CMSS17-30" d="M 2758 2073 
C 2758 2439 2752 3120 2490 3647 
C 2227 4153 1805 4288 1504 4288 
C 1069 4288 698 4031 506 3621 
C 301 3191 243 2748 243 2073 
C 243 1611 262 1046 493 551 
C 755 6 1197 -128 1498 -128 
C 1894 -128 2278 83 2496 525 
C 2720 988 2758 1495 2758 2073 
z
M 1498 262 
C 1011 262 864 821 819 1007 
C 742 1328 730 1636 730 2144 
C 730 2542 730 2992 851 3345 
C 998 3756 1254 3897 1498 3897 
C 1971 3897 2125 3422 2176 3255 
C 2272 2915 2272 2516 2272 2144 
C 2272 1546 2272 262 1498 262 
z
" transform="scale(0.015625)"/>
       </defs>
       <use xlink:href="#CMSS17-35" transform="scale(0.996264)"/>
       <use xlink:href="#CMSS17-2e" transform="translate(46.843624 0) scale(0.996264)"/>
       <use xlink:href="#CMSS17-30" transform="translate(72.867828 0) scale(0.996264)"/>
      </g>
     </g>
    </g>
    <g id="xtick_3">
     <g id="line2d_5">
      <g>
       <use xlink:href="#m3ad59c6ddd" x="282.501908" y="242.580208" style="stroke: #000000; stroke-width: 1.7"/>
      </g>
     </g>
     <g id="line2d_6">
      <g>
       <use xlink:href="#mc79ef60419" x="282.501908" y="20.820208" style="stroke: #000000; stroke-width: 1.7"/>
      </g>
     </g>
     <g id="text_3">
      <!-- $\mathdefault{7.5}$ -->
      <g transform="translate(273.153382 257.957933) scale(0.15 -0.15)">
       <defs>
        <path id="CMSS17-37" d="M 1389 3788 
C 1466 3788 1542 3795 1619 3795 
L 2355 3795 
C 1440 2715 915 1350 915 -64 
L 1427 -64 
C 1427 1305 1875 2695 2752 3807 
L 2752 4224 
L 250 4224 
L 250 3788 
L 1389 3788 
z
" transform="scale(0.015625)"/>
       </defs>
       <use xlink:href="#CMSS17-37" transform="scale(0.996264)"/>
       <use xlink:href="#CMSS17-2e" transform="translate(46.843624 0) scale(0.996264)"/>
       <use xlink:href="#CMSS17-35" transform="translate(72.867828 0) scale(0.996264)"/>
      </g>
     </g>
    </g>
    <g id="xtick_4">
     <g id="line2d_7">
      <g>
       <use xlink:href="#m3ad59c6ddd" x="362.256071" y="242.580208" style="stroke: #000000; stroke-width: 1.7"/>
      </g>
     </g>
     <g id="line2d_8">
      <g>
       <use xlink:href="#mc79ef60419" x="362.256071" y="20.820208" style="stroke: #000000; stroke-width: 1.7"/>
      </g>
     </g>
     <g id="text_4">
      <!-- $\mathdefault{10.0}$ -->
      <g transform="translate(349.249426 257.957933) scale(0.15 -0.15)">
       <defs>
        <path id="CMSS17-31" d="M 1818 4288 
L 1696 4288 
C 1350 3949 947 3902 538 3891 
L 538 3520 
C 723 3526 1024 3539 1325 3673 
L 1325 371 
L 570 371 
L 570 0 
L 2573 0 
L 2573 371 
L 1818 371 
L 1818 4288 
z
" transform="scale(0.015625)"/>
       </defs>
       <use xlink:href="#CMSS17-31" transform="scale(0.996264)"/>
       <use xlink:href="#CMSS17-30" transform="translate(46.843624 0) scale(0.996264)"/>
       <use xlink:href="#CMSS17-2e" transform="translate(93.687247 0) scale(0.996264)"/>
       <use xlink:href="#CMSS17-30" transform="translate(119.711452 0) scale(0.996264)"/>
      </g>
     </g>
    </g>
    <g id="xtick_5">
     <g id="line2d_9">
      <g>
       <use xlink:href="#m3ad59c6ddd" x="442.010234" y="242.580208" style="stroke: #000000; stroke-width: 1.7"/>
      </g>
     </g>
     <g id="line2d_10">
      <g>
       <use xlink:href="#mc79ef60419" x="442.010234" y="20.820208" style="stroke: #000000; stroke-width: 1.7"/>
      </g>
     </g>
     <g id="text_5">
      <!-- $\mathdefault{12.5}$ -->
      <g transform="translate(429.003589 257.957933) scale(0.15 -0.15)">
       <use xlink:href="#CMSS17-31" transform="scale(0.996264)"/>
       <use xlink:href="#CMSS17-32" transform="translate(46.843624 0) scale(0.996264)"/>
       <use xlink:href="#CMSS17-2e" transform="translate(93.687247 0) scale(0.996264)"/>
       <use xlink:href="#CMSS17-35" transform="translate(119.711452 0) scale(0.996264)"/>
      </g>
     </g>
    </g>
    <g id="xtick_6">
     <g id="line2d_11">
      <g>
       <use xlink:href="#m3ad59c6ddd" x="521.764397" y="242.580208" style="stroke: #000000; stroke-width: 1.7"/>
      </g>
     </g>
     <g id="line2d_12">
      <g>
       <use xlink:href="#mc79ef60419" x="521.764397" y="20.820208" style="stroke: #000000; stroke-width: 1.7"/>
      </g>
     </g>
     <g id="text_6">
      <!-- $\mathdefault{15.0}$ -->
      <g transform="translate(508.757752 257.957933) scale(0.15 -0.15)">
       <use xlink:href="#CMSS17-31" transform="scale(0.996264)"/>
       <use xlink:href="#CMSS17-35" transform="translate(46.843624 0) scale(0.996264)"/>
       <use xlink:href="#CMSS17-2e" transform="translate(93.687247 0) scale(0.996264)"/>
       <use xlink:href="#CMSS17-30" transform="translate(119.711452 0) scale(0.996264)"/>
      </g>
     </g>
    </g>
    <g id="xtick_7">
     <g id="line2d_13">
      <g>
       <use xlink:href="#m3ad59c6ddd" x="601.518559" y="242.580208" style="stroke: #000000; stroke-width: 1.7"/>
      </g>
     </g>
     <g id="line2d_14">
      <g>
       <use xlink:href="#mc79ef60419" x="601.518559" y="20.820208" style="stroke: #000000; stroke-width: 1.7"/>
      </g>
     </g>
     <g id="text_7">
      <!-- $\mathdefault{17.5}$ -->
      <g transform="translate(588.511914 257.957933) scale(0.15 -0.15)">
       <use xlink:href="#CMSS17-31" transform="scale(0.996264)"/>
       <use xlink:href="#CMSS17-37" transform="translate(46.843624 0) scale(0.996264)"/>
       <use xlink:href="#CMSS17-2e" transform="translate(93.687247 0) scale(0.996264)"/>
       <use xlink:href="#CMSS17-35" transform="translate(119.711452 0) scale(0.996264)"/>
      </g>
     </g>
    </g>
    <g id="xtick_8">
     <g id="line2d_15">
      <g>
       <use xlink:href="#m3ad59c6ddd" x="681.272722" y="242.580208" style="stroke: #000000; stroke-width: 1.7"/>
      </g>
     </g>
     <g id="line2d_16">
      <g>
       <use xlink:href="#mc79ef60419" x="681.272722" y="20.820208" style="stroke: #000000; stroke-width: 1.7"/>
      </g>
     </g>
     <g id="text_8">
      <!-- $\mathdefault{20.0}$ -->
      <g transform="translate(668.266077 257.957933) scale(0.15 -0.15)">
       <use xlink:href="#CMSS17-32" transform="scale(0.996264)"/>
       <use xlink:href="#CMSS17-30" transform="translate(46.843624 0) scale(0.996264)"/>
       <use xlink:href="#CMSS17-2e" transform="translate(93.687247 0) scale(0.996264)"/>
       <use xlink:href="#CMSS17-30" transform="translate(119.711452 0) scale(0.996264)"/>
      </g>
     </g>
    </g>
    <g id="xtick_9">
     <g id="line2d_17">
      <defs>
       <path id="m2384e73cb7" d="M 0 0 
L 0 -2 
" style="stroke: #000000; stroke-width: 0.5"/>
      </defs>
      <g>
       <use xlink:href="#m2384e73cb7" x="59.190252" y="242.580208" style="stroke: #000000; stroke-width: 0.5"/>
      </g>
     </g>
     <g id="line2d_18">
      <defs>
       <path id="m8fcf46bda0" d="M 0 0 
L 0 2 
" style="stroke: #000000; stroke-width: 0.5"/>
      </defs>
      <g>
       <use xlink:href="#m8fcf46bda0" x="59.190252" y="20.820208" style="stroke: #000000; stroke-width: 0.5"/>
      </g>
     </g>
    </g>
    <g id="xtick_10">
     <g id="line2d_19">
      <g>
       <use xlink:href="#m2384e73cb7" x="75.141085" y="242.580208" style="stroke: #000000; stroke-width: 0.5"/>
      </g>
     </g>
     <g id="line2d_20">
      <g>
       <use xlink:href="#m8fcf46bda0" x="75.141085" y="20.820208" style="stroke: #000000; stroke-width: 0.5"/>
      </g>
     </g>
    </g>
    <g id="xtick_11">
     <g id="line2d_21">
      <g>
       <use xlink:href="#m2384e73cb7" x="91.091917" y="242.580208" style="stroke: #000000; stroke-width: 0.5"/>
      </g>
     </g>
     <g id="line2d_22">
      <g>
       <use xlink:href="#m8fcf46bda0" x="91.091917" y="20.820208" style="stroke: #000000; stroke-width: 0.5"/>
      </g>
     </g>
    </g>
    <g id="xtick_12">
     <g id="line2d_23">
      <g>
       <use xlink:href="#m2384e73cb7" x="107.04275" y="242.580208" style="stroke: #000000; stroke-width: 0.5"/>
      </g>
     </g>
     <g id="line2d_24">
      <g>
       <use xlink:href="#m8fcf46bda0" x="107.04275" y="20.820208" style="stroke: #000000; stroke-width: 0.5"/>
      </g>
     </g>
    </g>
    <g id="xtick_13">
     <g id="line2d_25">
      <g>
       <use xlink:href="#m2384e73cb7" x="138.944415" y="242.580208" style="stroke: #000000; stroke-width: 0.5"/>
      </g>
     </g>
     <g id="line2d_26">
      <g>
       <use xlink:href="#m8fcf46bda0" x="138.944415" y="20.820208" style="stroke: #000000; stroke-width: 0.5"/>
      </g>
     </g>
    </g>
    <g id="xtick_14">
     <g id="line2d_27">
      <g>
       <use xlink:href="#m2384e73cb7" x="154.895248" y="242.580208" style="stroke: #000000; stroke-width: 0.5"/>
      </g>
     </g>
     <g id="line2d_28">
      <g>
       <use xlink:href="#m8fcf46bda0" x="154.895248" y="20.820208" style="stroke: #000000; stroke-width: 0.5"/>
      </g>
     </g>
    </g>
    <g id="xtick_15">
     <g id="line2d_29">
      <g>
       <use xlink:href="#m2384e73cb7" x="170.84608" y="242.580208" style="stroke: #000000; stroke-width: 0.5"/>
      </g>
     </g>
     <g id="line2d_30">
      <g>
       <use xlink:href="#m8fcf46bda0" x="170.84608" y="20.820208" style="stroke: #000000; stroke-width: 0.5"/>
      </g>
     </g>
    </g>
    <g id="xtick_16">
     <g id="line2d_31">
      <g>
       <use xlink:href="#m2384e73cb7" x="186.796913" y="242.580208" style="stroke: #000000; stroke-width: 0.5"/>
      </g>
     </g>
     <g id="line2d_32">
      <g>
       <use xlink:href="#m8fcf46bda0" x="186.796913" y="20.820208" style="stroke: #000000; stroke-width: 0.5"/>
      </g>
     </g>
    </g>
    <g id="xtick_17">
     <g id="line2d_33">
      <g>
       <use xlink:href="#m2384e73cb7" x="218.698578" y="242.580208" style="stroke: #000000; stroke-width: 0.5"/>
      </g>
     </g>
     <g id="line2d_34">
      <g>
       <use xlink:href="#m8fcf46bda0" x="218.698578" y="20.820208" style="stroke: #000000; stroke-width: 0.5"/>
      </g>
     </g>
    </g>
    <g id="xtick_18">
     <g id="line2d_35">
      <g>
       <use xlink:href="#m2384e73cb7" x="234.649411" y="242.580208" style="stroke: #000000; stroke-width: 0.5"/>
      </g>
     </g>
     <g id="line2d_36">
      <g>
       <use xlink:href="#m8fcf46bda0" x="234.649411" y="20.820208" style="stroke: #000000; stroke-width: 0.5"/>
      </g>
     </g>
    </g>
    <g id="xtick_19">
     <g id="line2d_37">
      <g>
       <use xlink:href="#m2384e73cb7" x="250.600243" y="242.580208" style="stroke: #000000; stroke-width: 0.5"/>
      </g>
     </g>
     <g id="line2d_38">
      <g>
       <use xlink:href="#m8fcf46bda0" x="250.600243" y="20.820208" style="stroke: #000000; stroke-width: 0.5"/>
      </g>
     </g>
    </g>
    <g id="xtick_20">
     <g id="line2d_39">
      <g>
       <use xlink:href="#m2384e73cb7" x="266.551076" y="242.580208" style="stroke: #000000; stroke-width: 0.5"/>
      </g>
     </g>
     <g id="line2d_40">
      <g>
       <use xlink:href="#m8fcf46bda0" x="266.551076" y="20.820208" style="stroke: #000000; stroke-width: 0.5"/>
      </g>
     </g>
    </g>
    <g id="xtick_21">
     <g id="line2d_41">
      <g>
       <use xlink:href="#m2384e73cb7" x="298.452741" y="242.580208" style="stroke: #000000; stroke-width: 0.5"/>
      </g>
     </g>
     <g id="line2d_42">
      <g>
       <use xlink:href="#m8fcf46bda0" x="298.452741" y="20.820208" style="stroke: #000000; stroke-width: 0.5"/>
      </g>
     </g>
    </g>
    <g id="xtick_22">
     <g id="line2d_43">
      <g>
       <use xlink:href="#m2384e73cb7" x="314.403573" y="242.580208" style="stroke: #000000; stroke-width: 0.5"/>
      </g>
     </g>
     <g id="line2d_44">
      <g>
       <use xlink:href="#m8fcf46bda0" x="314.403573" y="20.820208" style="stroke: #000000; stroke-width: 0.5"/>
      </g>
     </g>
    </g>
    <g id="xtick_23">
     <g id="line2d_45">
      <g>
       <use xlink:href="#m2384e73cb7" x="330.354406" y="242.580208" style="stroke: #000000; stroke-width: 0.5"/>
      </g>
     </g>
     <g id="line2d_46">
      <g>
       <use xlink:href="#m8fcf46bda0" x="330.354406" y="20.820208" style="stroke: #000000; stroke-width: 0.5"/>
      </g>
     </g>
    </g>
    <g id="xtick_24">
     <g id="line2d_47">
      <g>
       <use xlink:href="#m2384e73cb7" x="346.305238" y="242.580208" style="stroke: #000000; stroke-width: 0.5"/>
      </g>
     </g>
     <g id="line2d_48">
      <g>
       <use xlink:href="#m8fcf46bda0" x="346.305238" y="20.820208" style="stroke: #000000; stroke-width: 0.5"/>
      </g>
     </g>
    </g>
    <g id="xtick_25">
     <g id="line2d_49">
      <g>
       <use xlink:href="#m2384e73cb7" x="378.206904" y="242.580208" style="stroke: #000000; stroke-width: 0.5"/>
      </g>
     </g>
     <g id="line2d_50">
      <g>
       <use xlink:href="#m8fcf46bda0" x="378.206904" y="20.820208" style="stroke: #000000; stroke-width: 0.5"/>
      </g>
     </g>
    </g>
    <g id="xtick_26">
     <g id="line2d_51">
      <g>
       <use xlink:href="#m2384e73cb7" x="394.157736" y="242.580208" style="stroke: #000000; stroke-width: 0.5"/>
      </g>
     </g>
     <g id="line2d_52">
      <g>
       <use xlink:href="#m8fcf46bda0" x="394.157736" y="20.820208" style="stroke: #000000; stroke-width: 0.5"/>
      </g>
     </g>
    </g>
    <g id="xtick_27">
     <g id="line2d_53">
      <g>
       <use xlink:href="#m2384e73cb7" x="410.108569" y="242.580208" style="stroke: #000000; stroke-width: 0.5"/>
      </g>
     </g>
     <g id="line2d_54">
      <g>
       <use xlink:href="#m8fcf46bda0" x="410.108569" y="20.820208" style="stroke: #000000; stroke-width: 0.5"/>
      </g>
     </g>
    </g>
    <g id="xtick_28">
     <g id="line2d_55">
      <g>
       <use xlink:href="#m2384e73cb7" x="426.059401" y="242.580208" style="stroke: #000000; stroke-width: 0.5"/>
      </g>
     </g>
     <g id="line2d_56">
      <g>
       <use xlink:href="#m8fcf46bda0" x="426.059401" y="20.820208" style="stroke: #000000; stroke-width: 0.5"/>
      </g>
     </g>
    </g>
    <g id="xtick_29">
     <g id="line2d_57">
      <g>
       <use xlink:href="#m2384e73cb7" x="457.961066" y="242.580208" style="stroke: #000000; stroke-width: 0.5"/>
      </g>
     </g>
     <g id="line2d_58">
      <g>
       <use xlink:href="#m8fcf46bda0" x="457.961066" y="20.820208" style="stroke: #000000; stroke-width: 0.5"/>
      </g>
     </g>
    </g>
    <g id="xtick_30">
     <g id="line2d_59">
      <g>
       <use xlink:href="#m2384e73cb7" x="473.911899" y="242.580208" style="stroke: #000000; stroke-width: 0.5"/>
      </g>
     </g>
     <g id="line2d_60">
      <g>
       <use xlink:href="#m8fcf46bda0" x="473.911899" y="20.820208" style="stroke: #000000; stroke-width: 0.5"/>
      </g>
     </g>
    </g>
    <g id="xtick_31">
     <g id="line2d_61">
      <g>
       <use xlink:href="#m2384e73cb7" x="489.862731" y="242.580208" style="stroke: #000000; stroke-width: 0.5"/>
      </g>
     </g>
     <g id="line2d_62">
      <g>
       <use xlink:href="#m8fcf46bda0" x="489.862731" y="20.820208" style="stroke: #000000; stroke-width: 0.5"/>
      </g>
     </g>
    </g>
    <g id="xtick_32">
     <g id="line2d_63">
      <g>
       <use xlink:href="#m2384e73cb7" x="505.813564" y="242.580208" style="stroke: #000000; stroke-width: 0.5"/>
      </g>
     </g>
     <g id="line2d_64">
      <g>
       <use xlink:href="#m8fcf46bda0" x="505.813564" y="20.820208" style="stroke: #000000; stroke-width: 0.5"/>
      </g>
     </g>
    </g>
    <g id="xtick_33">
     <g id="line2d_65">
      <g>
       <use xlink:href="#m2384e73cb7" x="537.715229" y="242.580208" style="stroke: #000000; stroke-width: 0.5"/>
      </g>
     </g>
     <g id="line2d_66">
      <g>
       <use xlink:href="#m8fcf46bda0" x="537.715229" y="20.820208" style="stroke: #000000; stroke-width: 0.5"/>
      </g>
     </g>
    </g>
    <g id="xtick_34">
     <g id="line2d_67">
      <g>
       <use xlink:href="#m2384e73cb7" x="553.666062" y="242.580208" style="stroke: #000000; stroke-width: 0.5"/>
      </g>
     </g>
     <g id="line2d_68">
      <g>
       <use xlink:href="#m8fcf46bda0" x="553.666062" y="20.820208" style="stroke: #000000; stroke-width: 0.5"/>
      </g>
     </g>
    </g>
    <g id="xtick_35">
     <g id="line2d_69">
      <g>
       <use xlink:href="#m2384e73cb7" x="569.616894" y="242.580208" style="stroke: #000000; stroke-width: 0.5"/>
      </g>
     </g>
     <g id="line2d_70">
      <g>
       <use xlink:href="#m8fcf46bda0" x="569.616894" y="20.820208" style="stroke: #000000; stroke-width: 0.5"/>
      </g>
     </g>
    </g>
    <g id="xtick_36">
     <g id="line2d_71">
      <g>
       <use xlink:href="#m2384e73cb7" x="585.567727" y="242.580208" style="stroke: #000000; stroke-width: 0.5"/>
      </g>
     </g>
     <g id="line2d_72">
      <g>
       <use xlink:href="#m8fcf46bda0" x="585.567727" y="20.820208" style="stroke: #000000; stroke-width: 0.5"/>
      </g>
     </g>
    </g>
    <g id="xtick_37">
     <g id="line2d_73">
      <g>
       <use xlink:href="#m2384e73cb7" x="617.469392" y="242.580208" style="stroke: #000000; stroke-width: 0.5"/>
      </g>
     </g>
     <g id="line2d_74">
      <g>
       <use xlink:href="#m8fcf46bda0" x="617.469392" y="20.820208" style="stroke: #000000; stroke-width: 0.5"/>
      </g>
     </g>
    </g>
    <g id="xtick_38">
     <g id="line2d_75">
      <g>
       <use xlink:href="#m2384e73cb7" x="633.420225" y="242.580208" style="stroke: #000000; stroke-width: 0.5"/>
      </g>
     </g>
     <g id="line2d_76">
      <g>
       <use xlink:href="#m8fcf46bda0" x="633.420225" y="20.820208" style="stroke: #000000; stroke-width: 0.5"/>
      </g>
     </g>
    </g>
    <g id="xtick_39">
     <g id="line2d_77">
      <g>
       <use xlink:href="#m2384e73cb7" x="649.371057" y="242.580208" style="stroke: #000000; stroke-width: 0.5"/>
      </g>
     </g>
     <g id="line2d_78">
      <g>
       <use xlink:href="#m8fcf46bda0" x="649.371057" y="20.820208" style="stroke: #000000; stroke-width: 0.5"/>
      </g>
     </g>
    </g>
    <g id="xtick_40">
     <g id="line2d_79">
      <g>
       <use xlink:href="#m2384e73cb7" x="665.32189" y="242.580208" style="stroke: #000000; stroke-width: 0.5"/>
      </g>
     </g>
     <g id="line2d_80">
      <g>
       <use xlink:href="#m8fcf46bda0" x="665.32189" y="20.820208" style="stroke: #000000; stroke-width: 0.5"/>
      </g>
     </g>
    </g>
    <g id="xtick_41">
     <g id="line2d_81">
      <g>
       <use xlink:href="#m2384e73cb7" x="697.223555" y="242.580208" style="stroke: #000000; stroke-width: 0.5"/>
      </g>
     </g>
     <g id="line2d_82">
      <g>
       <use xlink:href="#m8fcf46bda0" x="697.223555" y="20.820208" style="stroke: #000000; stroke-width: 0.5"/>
      </g>
     </g>
    </g>
    <g id="text_9">
     <!-- $Q\;[\mathrm{\AA}^{-1}]$ -->
     <g transform="translate(347.021709 285.976126) scale(0.2 -0.2)">
      <defs>
       <path id="CMSSI17-51" d="M 3130 -832 
L 3757 -832 
L 3251 211 
C 4230 867 4634 1988 4634 2800 
C 4634 3812 4038 4544 3181 4544 
C 1946 4544 736 3084 736 1602 
C 736 616 1318 -128 2195 -128 
C 2419 -128 2605 -77 2765 -26 
L 3130 -832 
z
M 2752 1222 
L 2202 1222 
L 2605 326 
C 2566 313 2426 275 2285 275 
C 1651 275 1261 842 1261 1608 
C 1261 2865 2144 4140 3091 4140 
C 3706 4140 4109 3593 4109 2794 
C 4109 2291 3917 1209 3078 571 
L 3072 571 
L 2752 1222 
z
" transform="scale(0.015625)"/>
       <path id="CMSS17-5b" d="M 1613 -1600 
L 1613 -1210 
L 1062 -1210 
L 1062 4409 
L 1613 4409 
L 1613 4800 
L 595 4800 
L 595 -1600 
L 1613 -1600 
z
" transform="scale(0.015625)"/>
       <path id="CMSS17-17" d="M 2669 3855 
C 2669 4147 2381 4416 1997 4416 
C 1613 4416 1325 4147 1325 3855 
C 1325 3564 1613 3295 1997 3295 
C 2381 3295 2669 3564 2669 3855 
z
M 1997 3584 
C 1856 3584 1664 3628 1664 3855 
C 1664 4071 1837 4127 1997 4127 
C 2138 4127 2330 4083 2330 3855 
C 2330 3640 2157 3584 1997 3584 
z
" transform="scale(0.015625)"/>
       <path id="CMSS17-41" d="M 2272 4416 
L 1722 4416 
L 166 0 
L 653 0 
L 1101 1280 
L 2816 1280 
L 3270 0 
L 3827 0 
L 2272 4416 
z
M 2694 1638 
L 1222 1638 
C 1530 2530 1914 3638 1958 3924 
L 1965 3924 
C 2010 3663 2138 3281 2246 2956 
L 2694 1638 
z
" transform="scale(0.015625)"/>
       <path id="CMSY10-0" d="M 4218 1472 
C 4326 1472 4442 1472 4442 1600 
C 4442 1728 4326 1728 4218 1728 
L 755 1728 
C 646 1728 531 1728 531 1600 
C 531 1472 646 1472 755 1472 
L 4218 1472 
z
" transform="scale(0.015625)"/>
       <path id="CMSS17-5d" d="M 1146 4800 
L 128 4800 
L 128 4409 
L 678 4409 
L 678 -1210 
L 128 -1210 
L 128 -1600 
L 1146 -1600 
L 1146 4800 
z
" transform="scale(0.015625)"/>
      </defs>
      <use xlink:href="#CMSSI17-51" transform="scale(0.996264)"/>
      <use xlink:href="#CMSS17-5b" transform="translate(104.389697 0) scale(0.996264)"/>
      <use xlink:href="#CMSS17-17" transform="translate(131.575136 17.618744) scale(0.996264)"/>
      <use xlink:href="#CMSS17-41" transform="translate(131.575136 0) scale(0.996264)"/>
      <use xlink:href="#CMSY10-0" transform="translate(193.792991 59.877267) scale(0.697382)"/>
      <use xlink:href="#CMSS17-31" transform="translate(248.033984 59.877267) scale(0.697382)"/>
      <use xlink:href="#CMSS17-5d" transform="translate(281.322497 0) scale(0.996264)"/>
     </g>
    </g>
   </g>
   <g id="matplotlib.axis_2">
    <g id="ytick_1">
     <g id="line2d_83">
      <defs>
       <path id="mbfa4be93c4" d="M 0 0 
L 3.5 0 
" style="stroke: #000000; stroke-width: 1.7"/>
      </defs>
      <g>
       <use xlink:href="#mbfa4be93c4" x="43.406904" y="232.500208" style="stroke: #000000; stroke-width: 1.7"/>
      </g>
     </g>
     <g id="line2d_84">
      <defs>
       <path id="m31d8ce81d5" d="M 0 0 
L -3.5 0 
" style="stroke: #000000; stroke-width: 1.7"/>
      </defs>
      <g>
       <use xlink:href="#m31d8ce81d5" x="713.006904" y="232.500208" style="stroke: #000000; stroke-width: 1.7"/>
      </g>
     </g>
     <g id="text_10">
      <!-- $\mathdefault{0}$ -->
      <g transform="translate(31.090666 237.689071) scale(0.15 -0.15)">
       <use xlink:href="#CMSS17-30" transform="scale(0.996264)"/>
      </g>
     </g>
    </g>
    <g id="ytick_2">
     <g id="line2d_85">
      <g>
       <use xlink:href="#mbfa4be93c4" x="43.406904" y="188.852923" style="stroke: #000000; stroke-width: 1.7"/>
      </g>
     </g>
     <g id="line2d_86">
      <g>
       <use xlink:href="#m31d8ce81d5" x="713.006904" y="188.852923" style="stroke: #000000; stroke-width: 1.7"/>
      </g>
     </g>
     <g id="text_11">
      <!-- $\mathdefault{2}$ -->
      <g transform="translate(31.090666 194.041786) scale(0.15 -0.15)">
       <use xlink:href="#CMSS17-32" transform="scale(0.996264)"/>
      </g>
     </g>
    </g>
    <g id="ytick_3">
     <g id="line2d_87">
      <g>
       <use xlink:href="#mbfa4be93c4" x="43.406904" y="145.205639" style="stroke: #000000; stroke-width: 1.7"/>
      </g>
     </g>
     <g id="line2d_88">
      <g>
       <use xlink:href="#m31d8ce81d5" x="713.006904" y="145.205639" style="stroke: #000000; stroke-width: 1.7"/>
      </g>
     </g>
     <g id="text_12">
      <!-- $\mathdefault{4}$ -->
      <g transform="translate(31.090666 150.394501) scale(0.15 -0.15)">
       <defs>
        <path id="CMSS17-34" d="M 2253 1088 
L 2835 1088 
L 2835 1478 
L 2253 1478 
L 2253 4224 
L 1690 4224 
L 166 1478 
L 166 1088 
L 1747 1088 
L 1747 0 
L 2253 0 
L 2253 1088 
z
M 659 1478 
C 1030 2139 1766 3474 1766 3927 
L 1766 1478 
L 659 1478 
z
" transform="scale(0.015625)"/>
       </defs>
       <use xlink:href="#CMSS17-34" transform="scale(0.996264)"/>
      </g>
     </g>
    </g>
    <g id="ytick_4">
     <g id="line2d_89">
      <g>
       <use xlink:href="#mbfa4be93c4" x="43.406904" y="101.558354" style="stroke: #000000; stroke-width: 1.7"/>
      </g>
     </g>
     <g id="line2d_90">
      <g>
       <use xlink:href="#m31d8ce81d5" x="713.006904" y="101.558354" style="stroke: #000000; stroke-width: 1.7"/>
      </g>
     </g>
     <g id="text_13">
      <!-- $\mathdefault{6}$ -->
      <g transform="translate(31.090666 106.747216) scale(0.15 -0.15)">
       <defs>
        <path id="CMSS17-36" d="M 2496 4159 
C 2227 4268 2035 4288 1856 4288 
C 1024 4288 250 3408 250 2023 
C 250 268 986 -128 1510 -128 
C 1798 -128 2086 -39 2362 281 
C 2643 619 2752 900 2752 1392 
C 2752 2183 2362 2886 1779 2886 
C 1357 2886 992 2662 768 2381 
C 832 3290 1254 3897 1862 3897 
C 2029 3897 2246 3871 2496 3760 
L 2496 4159 
z
M 774 1372 
C 774 1423 774 1455 781 1551 
C 781 2049 1069 2496 1536 2496 
C 1837 2496 1990 2336 2106 2138 
C 2240 1889 2246 1653 2246 1392 
C 2246 1143 2246 894 2099 638 
C 1978 441 1818 268 1510 268 
C 902 268 800 1117 774 1372 
z
" transform="scale(0.015625)"/>
       </defs>
       <use xlink:href="#CMSS17-36" transform="scale(0.996264)"/>
      </g>
     </g>
    </g>
    <g id="ytick_5">
     <g id="line2d_91">
      <g>
       <use xlink:href="#mbfa4be93c4" x="43.406904" y="57.911069" style="stroke: #000000; stroke-width: 1.7"/>
      </g>
     </g>
     <g id="line2d_92">
      <g>
       <use xlink:href="#m31d8ce81d5" x="713.006904" y="57.911069" style="stroke: #000000; stroke-width: 1.7"/>
      </g>
     </g>
     <g id="text_14">
      <!-- $\mathdefault{8}$ -->
      <g transform="translate(31.090666 63.099931) scale(0.15 -0.15)">
       <defs>
        <path id="CMSS17-38" d="M 1933 2246 
C 2419 2406 2669 2793 2669 3174 
C 2669 3774 2157 4288 1504 4288 
C 826 4288 333 3755 333 3174 
C 333 2799 576 2412 1069 2246 
C 442 2003 250 1516 250 1152 
C 250 448 819 -128 1498 -128 
C 2202 -128 2752 460 2752 1152 
C 2752 1574 2502 2022 1933 2246 
z
M 1504 2438 
C 1075 2438 787 2728 787 3167 
C 787 3613 1075 3897 1504 3897 
C 1901 3897 2214 3639 2214 3167 
C 2214 2703 1907 2438 1504 2438 
z
M 1504 268 
C 1139 268 749 518 749 1158 
C 749 1817 1184 2048 1498 2048 
C 1843 2048 2253 1804 2253 1158 
C 2253 492 1830 268 1504 268 
z
" transform="scale(0.015625)"/>
       </defs>
       <use xlink:href="#CMSS17-38" transform="scale(0.996264)"/>
      </g>
     </g>
    </g>
    <g id="ytick_6">
     <g id="line2d_93">
      <defs>
       <path id="m7f35e4a9a4" d="M 0 0 
L 2 0 
" style="stroke: #000000; stroke-width: 0.5"/>
      </defs>
      <g>
       <use xlink:href="#m7f35e4a9a4" x="43.406904" y="221.588387" style="stroke: #000000; stroke-width: 0.5"/>
      </g>
     </g>
     <g id="line2d_94">
      <defs>
       <path id="m8382a4eff0" d="M 0 0 
L -2 0 
" style="stroke: #000000; stroke-width: 0.5"/>
      </defs>
      <g>
       <use xlink:href="#m8382a4eff0" x="713.006904" y="221.588387" style="stroke: #000000; stroke-width: 0.5"/>
      </g>
     </g>
    </g>
    <g id="ytick_7">
     <g id="line2d_95">
      <g>
       <use xlink:href="#m7f35e4a9a4" x="43.406904" y="210.676566" style="stroke: #000000; stroke-width: 0.5"/>
      </g>
     </g>
     <g id="line2d_96">
      <g>
       <use xlink:href="#m8382a4eff0" x="713.006904" y="210.676566" style="stroke: #000000; stroke-width: 0.5"/>
      </g>
     </g>
    </g>
    <g id="ytick_8">
     <g id="line2d_97">
      <g>
       <use xlink:href="#m7f35e4a9a4" x="43.406904" y="199.764745" style="stroke: #000000; stroke-width: 0.5"/>
      </g>
     </g>
     <g id="line2d_98">
      <g>
       <use xlink:href="#m8382a4eff0" x="713.006904" y="199.764745" style="stroke: #000000; stroke-width: 0.5"/>
      </g>
     </g>
    </g>
    <g id="ytick_9">
     <g id="line2d_99">
      <g>
       <use xlink:href="#m7f35e4a9a4" x="43.406904" y="177.941102" style="stroke: #000000; stroke-width: 0.5"/>
      </g>
     </g>
     <g id="line2d_100">
      <g>
       <use xlink:href="#m8382a4eff0" x="713.006904" y="177.941102" style="stroke: #000000; stroke-width: 0.5"/>
      </g>
     </g>
    </g>
    <g id="ytick_10">
     <g id="line2d_101">
      <g>
       <use xlink:href="#m7f35e4a9a4" x="43.406904" y="167.029281" style="stroke: #000000; stroke-width: 0.5"/>
      </g>
     </g>
     <g id="line2d_102">
      <g>
       <use xlink:href="#m8382a4eff0" x="713.006904" y="167.029281" style="stroke: #000000; stroke-width: 0.5"/>
      </g>
     </g>
    </g>
    <g id="ytick_11">
     <g id="line2d_103">
      <g>
       <use xlink:href="#m7f35e4a9a4" x="43.406904" y="156.11746" style="stroke: #000000; stroke-width: 0.5"/>
      </g>
     </g>
     <g id="line2d_104">
      <g>
       <use xlink:href="#m8382a4eff0" x="713.006904" y="156.11746" style="stroke: #000000; stroke-width: 0.5"/>
      </g>
     </g>
    </g>
    <g id="ytick_12">
     <g id="line2d_105">
      <g>
       <use xlink:href="#m7f35e4a9a4" x="43.406904" y="134.293817" style="stroke: #000000; stroke-width: 0.5"/>
      </g>
     </g>
     <g id="line2d_106">
      <g>
       <use xlink:href="#m8382a4eff0" x="713.006904" y="134.293817" style="stroke: #000000; stroke-width: 0.5"/>
      </g>
     </g>
    </g>
    <g id="ytick_13">
     <g id="line2d_107">
      <g>
       <use xlink:href="#m7f35e4a9a4" x="43.406904" y="123.381996" style="stroke: #000000; stroke-width: 0.5"/>
      </g>
     </g>
     <g id="line2d_108">
      <g>
       <use xlink:href="#m8382a4eff0" x="713.006904" y="123.381996" style="stroke: #000000; stroke-width: 0.5"/>
      </g>
     </g>
    </g>
    <g id="ytick_14">
     <g id="line2d_109">
      <g>
       <use xlink:href="#m7f35e4a9a4" x="43.406904" y="112.470175" style="stroke: #000000; stroke-width: 0.5"/>
      </g>
     </g>
     <g id="line2d_110">
      <g>
       <use xlink:href="#m8382a4eff0" x="713.006904" y="112.470175" style="stroke: #000000; stroke-width: 0.5"/>
      </g>
     </g>
    </g>
    <g id="ytick_15">
     <g id="line2d_111">
      <g>
       <use xlink:href="#m7f35e4a9a4" x="43.406904" y="90.646532" style="stroke: #000000; stroke-width: 0.5"/>
      </g>
     </g>
     <g id="line2d_112">
      <g>
       <use xlink:href="#m8382a4eff0" x="713.006904" y="90.646532" style="stroke: #000000; stroke-width: 0.5"/>
      </g>
     </g>
    </g>
    <g id="ytick_16">
     <g id="line2d_113">
      <g>
       <use xlink:href="#m7f35e4a9a4" x="43.406904" y="79.734711" style="stroke: #000000; stroke-width: 0.5"/>
      </g>
     </g>
     <g id="line2d_114">
      <g>
       <use xlink:href="#m8382a4eff0" x="713.006904" y="79.734711" style="stroke: #000000; stroke-width: 0.5"/>
      </g>
     </g>
    </g>
    <g id="ytick_17">
     <g id="line2d_115">
      <g>
       <use xlink:href="#m7f35e4a9a4" x="43.406904" y="68.82289" style="stroke: #000000; stroke-width: 0.5"/>
      </g>
     </g>
     <g id="line2d_116">
      <g>
       <use xlink:href="#m8382a4eff0" x="713.006904" y="68.82289" style="stroke: #000000; stroke-width: 0.5"/>
      </g>
     </g>
    </g>
    <g id="ytick_18">
     <g id="line2d_117">
      <g>
       <use xlink:href="#m7f35e4a9a4" x="43.406904" y="46.999248" style="stroke: #000000; stroke-width: 0.5"/>
      </g>
     </g>
     <g id="line2d_118">
      <g>
       <use xlink:href="#m8382a4eff0" x="713.006904" y="46.999248" style="stroke: #000000; stroke-width: 0.5"/>
      </g>
     </g>
    </g>
    <g id="ytick_19">
     <g id="line2d_119">
      <g>
       <use xlink:href="#m7f35e4a9a4" x="43.406904" y="36.087426" style="stroke: #000000; stroke-width: 0.5"/>
      </g>
     </g>
     <g id="line2d_120">
      <g>
       <use xlink:href="#m8382a4eff0" x="713.006904" y="36.087426" style="stroke: #000000; stroke-width: 0.5"/>
      </g>
     </g>
    </g>
    <g id="ytick_20">
     <g id="line2d_121">
      <g>
       <use xlink:href="#m7f35e4a9a4" x="43.406904" y="25.175605" style="stroke: #000000; stroke-width: 0.5"/>
      </g>
     </g>
     <g id="line2d_122">
      <g>
       <use xlink:href="#m8382a4eff0" x="713.006904" y="25.175605" style="stroke: #000000; stroke-width: 0.5"/>
      </g>
     </g>
    </g>
    <g id="text_15">
     <!-- $I\;[\mathrm{arb.\;u.}]$ -->
     <g transform="translate(22.126022 168.85959) rotate(-90) scale(0.2 -0.2)">
      <defs>
       <path id="CMSSI17-49" d="M 2042 4416 
L 1504 4416 
L 557 0 
L 1094 0 
L 2042 4416 
z
" transform="scale(0.015625)"/>
       <path id="CMSS17-61" d="M 2406 1789 
C 2406 2399 1978 2816 1402 2816 
C 1120 2816 813 2764 461 2559 
L 499 2133 
C 659 2250 934 2438 1395 2438 
C 1722 2438 1920 2185 1920 1782 
L 1920 1536 
C 896 1504 256 1209 256 711 
C 256 452 416 -64 947 -64 
C 1043 -64 1562 -52 1933 224 
L 1933 -13 
L 2406 -13 
L 2406 1789 
z
M 1920 824 
C 1920 711 1920 559 1728 446 
C 1562 339 1350 326 1261 326 
C 941 326 723 503 723 723 
C 723 1165 1722 1209 1920 1216 
L 1920 824 
z
" transform="scale(0.015625)"/>
       <path id="CMSS17-72" d="M 954 1369 
C 954 1974 1395 2379 1958 2392 
L 1958 2816 
C 1549 2809 1165 2604 934 2270 
L 934 2783 
L 480 2783 
L 480 0 
L 954 0 
L 954 1369 
z
" transform="scale(0.015625)"/>
       <path id="CMSS17-62" d="M 954 4416 
L 480 4416 
L 480 -13 
L 966 -13 
L 966 275 
C 1210 38 1504 -64 1766 -64 
C 2381 -64 2880 559 2880 1382 
C 2880 2133 2496 2816 1926 2816 
C 1523 2816 1165 2649 954 2476 
L 954 4416 
z
M 966 2095 
C 1107 2276 1306 2425 1587 2425 
C 1965 2425 2394 2146 2394 1382 
C 2394 566 1882 326 1530 326 
C 1402 326 1267 358 1139 468 
C 966 624 966 721 966 812 
L 966 2095 
z
" transform="scale(0.015625)"/>
       <path id="CMSS17-75" d="M 2618 2752 
L 2131 2752 
L 2131 976 
C 2131 500 1786 307 1421 307 
C 998 307 960 448 960 712 
L 960 2752 
L 474 2752 
L 474 680 
C 474 179 646 -64 1088 -64 
C 1306 -64 1798 -13 2144 307 
L 2144 -13 
L 2618 -13 
L 2618 2752 
z
" transform="scale(0.015625)"/>
      </defs>
      <use xlink:href="#CMSSI17-49" transform="scale(0.996264)"/>
      <use xlink:href="#CMSS17-5b" transform="translate(66.862288 0) scale(0.996264)"/>
      <use xlink:href="#CMSS17-61" transform="translate(94.047727 0) scale(0.996264)"/>
      <use xlink:href="#CMSS17-72" transform="translate(136.367194 0) scale(0.996264)"/>
      <use xlink:href="#CMSS17-62" transform="translate(168.276966 0) scale(0.996264)"/>
      <use xlink:href="#CMSS17-2e" transform="translate(216.481909 0) scale(0.996264)"/>
      <use xlink:href="#CMSS17-75" transform="translate(270.180123 0) scale(0.996264)"/>
      <use xlink:href="#CMSS17-2e" transform="translate(318.385066 0) scale(0.996264)"/>
      <use xlink:href="#CMSS17-5d" transform="translate(344.409271 0) scale(0.996264)"/>
     </g>
    </g>
    <g id="text_16">
     <!-- $\times\mathdefault{10^{4}}\mathdefault{}$ -->
     <g transform="translate(43.406904 17.820208) scale(0.15 -0.15)">
      <defs>
       <path id="CMSY10-2" d="M 2490 1775 
L 1210 3046 
C 1133 3123 1120 3136 1069 3136 
C 1005 3136 941 3078 941 3008 
C 941 2963 954 2950 1024 2880 
L 2304 1596 
L 1024 313 
C 954 243 941 230 941 185 
C 941 115 1005 57 1069 57 
C 1120 57 1133 70 1210 147 
L 2483 1418 
L 3808 95 
C 3821 89 3866 57 3904 57 
C 3981 57 4032 115 4032 185 
C 4032 198 4032 223 4013 255 
C 4006 268 2989 1271 2669 1596 
L 3840 2765 
C 3872 2803 3968 2886 4000 2925 
C 4006 2937 4032 2963 4032 3008 
C 4032 3078 3981 3136 3904 3136 
C 3853 3136 3827 3110 3757 3040 
L 2490 1775 
z
" transform="scale(0.015625)"/>
      </defs>
      <use xlink:href="#CMSY10-2" transform="scale(0.996264)"/>
      <use xlink:href="#CMSS17-31" transform="translate(77.487468 0) scale(0.996264)"/>
      <use xlink:href="#CMSS17-30" transform="translate(124.331091 0) scale(0.996264)"/>
      <use xlink:href="#CMSS17-34" transform="translate(171.174715 36.153639) scale(0.697382)"/>
     </g>
    </g>
   </g>
   <g id="line2d_123">
    <path d="M 43.406904 232.500208 
L 77.238619 232.500208 
L 77.573587 221.791797 
L 78.243522 221.44597 
L 78.578489 221.052962 
L 79.248424 220.794413 
L 80.923262 220.501786 
L 81.258229 220.261911 
L 81.928164 220.188315 
L 82.263132 219.993747 
L 82.598099 220.091008 
L 82.933067 219.869701 
L 83.603002 219.980773 
L 84.272937 219.853842 
L 85.277839 219.778633 
L 85.612807 219.858416 
L 86.617709 219.750655 
L 87.287644 218.832805 
L 87.622611 216.743272 
L 87.957579 211.857537 
L 88.627514 194.549265 
L 89.632416 145.297647 
L 89.967384 137.586394 
L 90.302351 125.890951 
L 90.972286 112.886679 
L 91.307254 114.880705 
L 91.642221 119.050112 
L 91.977189 118.62573 
L 92.312156 121.815604 
L 92.647124 129.94849 
L 93.652026 166.915296 
L 94.321961 199.806864 
L 94.991896 216.862741 
L 95.326864 219.894309 
L 95.661831 221.306197 
L 96.331766 222.21061 
L 96.666733 222.396855 
L 97.001701 222.406628 
L 97.671636 222.585688 
L 98.006603 222.531806 
L 98.341571 222.675109 
L 99.011506 222.651493 
L 99.346473 222.729028 
L 100.016408 222.701832 
L 101.691246 222.810948 
L 102.696148 222.895704 
L 103.031116 223.03201 
L 103.366083 222.982134 
L 104.370986 223.232116 
L 105.375888 223.451087 
L 106.38079 223.454935 
L 106.715758 223.249203 
L 107.050725 222.636723 
L 107.385693 220.445795 
L 108.055628 208.887791 
L 108.390595 191.69015 
L 110.065433 65.045196 
L 110.735368 39.62781 
L 111.070335 38.685487 
L 111.405303 30.900208 
L 111.74027 43.272882 
L 112.075238 38.211347 
L 112.410205 61.677917 
L 112.745173 71.55964 
L 113.415108 114.672071 
L 114.085043 163.770531 
L 114.42001 192.659796 
L 115.089945 217.91975 
L 115.424913 222.526924 
L 115.75988 224.463979 
L 116.094848 225.152075 
L 116.429815 225.50333 
L 117.09975 225.847116 
L 119.77949 226.21666 
L 120.784392 226.216852 
L 121.454327 226.172341 
L 121.789295 226.101617 
L 122.124262 225.903465 
L 122.45923 225.555109 
L 122.794197 224.537128 
L 123.129165 221.696953 
L 123.464132 217.726945 
L 123.7991 210.918082 
L 125.473937 152.596586 
L 125.808905 149.311102 
L 126.47884 139.700188 
L 126.813807 137.33743 
L 127.148774 141.942 
L 127.483742 140.445684 
L 128.488644 166.733702 
L 129.828514 212.460136 
L 130.163482 219.930454 
L 130.498449 223.333035 
L 130.833417 225.370283 
L 131.168384 226.022113 
L 131.838319 226.384899 
L 132.843222 226.530416 
L 134.853027 226.416467 
L 135.522962 226.002743 
L 135.857929 224.796657 
L 136.192897 222.713396 
L 137.197799 210.230774 
L 137.867734 193.926091 
L 138.202701 194.792664 
L 138.872636 185.93591 
L 139.207604 183.010058 
L 139.877539 174.116029 
L 140.212506 181.046912 
L 140.547474 185.110256 
L 140.882441 186.142864 
L 142.892246 220.514758 
L 143.562181 225.139179 
L 143.897149 225.888766 
L 144.232116 226.243933 
L 144.902051 226.400819 
L 145.906954 226.339802 
L 146.241921 226.202944 
L 146.576889 225.864649 
L 146.911856 224.936874 
L 147.246824 222.334295 
L 147.581791 218.121359 
L 148.251726 200.074728 
L 149.256628 158.850478 
L 150.261531 133.192727 
L 150.596498 128.837885 
L 150.931466 126.516177 
L 151.266433 129.71417 
L 151.601401 128.482487 
L 151.936368 136.776606 
L 152.271336 141.271949 
L 152.606303 150.175362 
L 154.281141 212.858463 
L 154.616108 219.793528 
L 154.951076 223.931242 
L 155.286043 225.690625 
L 155.621011 226.517425 
L 155.955978 226.795506 
L 156.290946 226.87877 
L 156.625913 226.841661 
L 156.960881 226.667633 
L 157.295848 225.906332 
L 157.965783 222.186412 
L 158.635718 212.275551 
L 159.64062 188.764625 
L 159.975588 186.000246 
L 160.645523 176.277508 
L 160.98049 176.518332 
L 161.315458 174.019241 
L 161.650425 175.11948 
L 161.985393 175.607675 
L 162.655328 183.824822 
L 162.990295 189.137875 
L 164.330165 218.415415 
L 165.0001 224.362809 
L 165.335068 226.357132 
L 165.670035 226.93782 
L 166.005003 227.190977 
L 167.344873 227.412142 
L 171.69945 227.483368 
L 174.714157 227.43292 
L 175.049125 227.36531 
L 175.384092 227.18096 
L 175.71906 226.797614 
L 176.054027 225.889556 
L 176.723962 222.309045 
L 177.393897 216.603869 
L 177.728865 212.916837 
L 178.063832 211.397383 
L 178.3988 210.483732 
L 179.068734 205.144993 
L 179.403702 206.735085 
L 179.738669 205.727073 
L 180.743572 208.492718 
L 181.078539 210.339085 
L 181.748474 216.756877 
L 182.753377 224.290246 
L 183.423312 226.19576 
L 183.758279 225.777682 
L 184.093247 224.349305 
L 184.428214 221.888117 
L 184.763182 217.668075 
L 185.098149 211.707506 
L 186.438019 177.656849 
L 186.772987 170.791328 
L 187.107954 167.654594 
L 187.442922 161.775807 
L 187.777889 163.316185 
L 188.112857 165.980677 
L 188.447824 166.413527 
L 188.782791 168.28054 
L 189.117759 171.863807 
L 189.452726 178.353416 
L 190.457629 208.250213 
L 190.792596 215.066357 
L 191.127564 219.537938 
L 191.797499 223.787285 
L 192.132466 223.53955 
L 192.802401 218.386357 
L 194.812206 182.664568 
L 195.147174 182.578103 
L 195.482141 182.861679 
L 195.817109 183.940574 
L 196.152076 180.866365 
L 196.487044 186.312193 
L 196.822011 187.439974 
L 197.156979 191.591638 
L 198.831816 220.431084 
L 199.166783 222.692194 
L 199.501751 223.415604 
L 199.836718 223.327474 
L 200.171686 222.047788 
L 200.841621 214.849148 
L 202.181491 201.301871 
L 202.516458 198.220482 
L 202.851426 198.683121 
L 203.186393 198.425253 
L 203.856328 199.850992 
L 204.191296 200.472616 
L 204.861231 206.666122 
L 205.531166 216.433379 
L 205.866133 220.157446 
L 206.536068 224.274701 
L 206.871036 225.284049 
L 207.206003 225.742349 
L 207.540971 225.852397 
L 208.880841 223.256458 
L 209.550775 222.42049 
L 209.885743 221.938657 
L 210.555678 222.260383 
L 210.890645 222.223418 
L 211.225613 222.643137 
L 211.56058 223.263917 
L 211.895548 223.648214 
L 212.565483 225.184402 
L 213.235418 225.599134 
L 213.570385 224.95875 
L 213.905353 224.574008 
L 214.24032 223.176275 
L 214.910255 219.125061 
L 215.245223 215.134001 
L 216.250125 209.397722 
L 216.585093 209.291485 
L 216.92006 208.042278 
L 217.255028 209.091406 
L 217.589995 209.6928 
L 218.25993 212.499294 
L 218.594898 214.066749 
L 219.264833 219.220384 
L 219.5998 221.038327 
L 219.934767 221.64603 
L 220.269735 221.50374 
L 220.604702 219.746727 
L 220.93967 216.796886 
L 221.609605 207.401405 
L 221.944572 200.900731 
L 222.949475 191.695824 
L 223.61941 189.842211 
L 223.954377 189.975052 
L 224.289345 191.060101 
L 224.624312 192.839688 
L 226.29915 217.798454 
L 226.634117 221.344822 
L 226.969085 223.537963 
L 227.63902 226.100526 
L 227.973987 226.619555 
L 228.308955 226.889858 
L 228.97889 227.001338 
L 231.658629 227.018018 
L 232.328564 226.763142 
L 232.663532 226.388229 
L 232.998499 226.218 
L 233.668434 224.364684 
L 234.003402 224.39857 
L 234.673337 222.526038 
L 235.008304 222.099143 
L 235.343272 221.476676 
L 236.013207 220.78548 
L 236.348174 221.28939 
L 236.683142 220.828313 
L 238.023012 223.068137 
L 238.357979 222.993537 
L 239.027914 221.272448 
L 239.697849 216.213488 
L 240.032817 211.59619 
L 241.372686 200.429035 
L 241.707654 198.756209 
L 242.042621 198.765615 
L 242.377589 198.037076 
L 243.047524 200.421593 
L 243.382491 205.137442 
L 243.717459 207.99767 
L 244.387394 215.28944 
L 244.722361 217.233628 
L 245.392296 216.786621 
L 245.727264 213.66431 
L 246.062231 212.065654 
L 246.732166 206.849703 
L 247.737069 203.989758 
L 248.072036 203.890897 
L 248.407004 204.21105 
L 248.741971 205.806838 
L 249.076939 207.990861 
L 250.081841 217.699021 
L 250.416809 220.380315 
L 250.751776 221.404615 
L 251.086743 221.488398 
L 251.421711 221.406452 
L 251.756678 220.48276 
L 252.091646 220.297597 
L 252.761581 218.412971 
L 253.096548 218.695978 
L 253.431516 218.223568 
L 253.766483 217.3465 
L 254.101451 218.827262 
L 255.776288 222.806133 
L 256.111256 222.891376 
L 256.446223 222.492901 
L 257.116158 219.406887 
L 257.786093 216.599075 
L 258.121061 215.937677 
L 258.456028 214.353143 
L 258.790996 215.161032 
L 259.125963 215.36739 
L 259.460931 214.733127 
L 259.795898 216.402922 
L 260.130866 217.001568 
L 261.135768 219.763123 
L 261.470735 219.126111 
L 261.805703 217.67979 
L 262.475638 212.088036 
L 263.48054 203.963657 
L 263.815508 203.802206 
L 264.150475 202.507453 
L 264.485443 202.309403 
L 265.155378 206.175876 
L 265.490345 207.492322 
L 266.16028 214.421872 
L 266.495248 217.508049 
L 266.830215 219.234655 
L 267.165183 219.715757 
L 267.835118 218.920999 
L 268.170085 217.746874 
L 269.509955 215.581853 
L 269.844923 215.86213 
L 270.17989 217.106337 
L 270.514858 217.616596 
L 270.849825 219.110413 
L 271.51976 223.522955 
L 271.854727 224.84772 
L 272.524662 226.428638 
L 272.85963 226.638234 
L 273.194597 226.997765 
L 274.1995 227.225377 
L 275.204402 227.172368 
L 275.874337 226.877801 
L 276.209305 226.660071 
L 276.87924 225.683696 
L 277.214207 224.921911 
L 277.549175 224.444744 
L 278.21911 222.807022 
L 278.554077 222.364067 
L 278.889045 221.698322 
L 279.224012 221.713568 
L 279.55898 221.449333 
L 279.893947 221.488666 
L 280.228915 221.921962 
L 280.563882 222.091208 
L 280.89885 222.846016 
L 281.233817 223.27312 
L 281.568784 223.955565 
L 281.903752 224.030324 
L 282.238719 223.535233 
L 282.573687 223.276998 
L 282.908654 222.707547 
L 283.243622 222.713167 
L 283.578589 221.961595 
L 283.913557 221.939955 
L 284.248524 221.642983 
L 284.583492 221.637477 
L 284.918459 221.380766 
L 285.253427 221.269703 
L 285.588394 221.036214 
L 285.923362 221.261327 
L 286.258329 220.566148 
L 286.593297 219.336897 
L 287.263232 215.056599 
L 287.933167 209.597234 
L 288.603102 206.479116 
L 288.938069 204.678141 
L 289.942972 205.739818 
L 291.282842 216.883133 
L 291.617809 217.412815 
L 291.952776 218.3115 
L 292.287744 218.066272 
L 292.622711 218.064823 
L 293.292646 217.491863 
L 293.627614 217.556701 
L 293.962581 217.293531 
L 294.297549 217.740515 
L 294.632516 217.847415 
L 294.967484 219.1233 
L 295.637419 222.411485 
L 296.307354 224.930822 
L 296.642321 225.296189 
L 297.312256 226.376852 
L 297.982191 226.855888 
L 298.317159 226.955504 
L 298.652126 226.867173 
L 298.987094 226.652027 
L 299.657029 225.496323 
L 300.326964 223.063578 
L 302.336768 211.617326 
L 302.671736 210.830423 
L 303.006703 211.401652 
L 303.341671 210.921401 
L 303.676638 211.931637 
L 304.011606 213.317932 
L 305.016508 219.445157 
L 305.351476 220.620072 
L 305.686443 220.595104 
L 306.021411 221.003112 
L 306.356378 220.827833 
L 306.691346 221.175012 
L 307.026313 221.248986 
L 307.696248 221.820438 
L 308.031216 222.092059 
L 309.036118 224.116663 
L 309.706053 225.546607 
L 310.375988 226.292925 
L 310.710956 226.466912 
L 311.045923 226.772332 
L 311.715858 227.042 
L 312.385793 226.946342 
L 312.72076 226.852335 
L 315.065533 224.914869 
L 315.4005 224.348799 
L 315.735468 224.209112 
L 316.405403 223.404843 
L 317.075338 223.095853 
L 317.410305 222.236163 
L 317.745273 222.091093 
L 318.415208 220.713981 
L 318.750175 219.418414 
L 319.085143 218.653762 
L 319.755078 216.861596 
L 320.090045 215.821555 
L 320.425013 215.82023 
L 320.75998 216.052373 
L 321.094948 216.41994 
L 321.429915 217.416348 
L 321.764883 217.505897 
L 322.09985 218.427903 
L 322.434818 218.571888 
L 322.769785 218.558351 
L 323.43972 217.4801 
L 323.774687 216.815777 
L 324.109655 217.03359 
L 324.444622 216.491927 
L 324.77959 216.880294 
L 325.114557 216.871085 
L 325.449525 217.372463 
L 326.11946 219.017693 
L 326.454427 219.670183 
L 326.789395 219.688364 
L 327.124362 219.140613 
L 327.794297 218.90967 
L 328.129265 218.692246 
L 328.464232 218.646503 
L 328.7992 218.729911 
L 329.134167 219.449258 
L 329.469135 219.655956 
L 329.804102 220.352159 
L 330.13907 221.413111 
L 330.474037 221.952497 
L 330.809005 222.241233 
L 331.47894 222.45414 
L 331.813907 222.185118 
L 332.148875 222.311234 
L 332.483842 222.180052 
L 332.81881 222.19862 
L 333.488744 222.662695 
L 334.158679 223.906119 
L 335.163582 224.474738 
L 335.833517 224.475524 
L 336.838419 223.98298 
L 337.508354 223.836334 
L 337.843322 223.399706 
L 338.178289 223.217385 
L 339.183192 221.352456 
L 340.523062 219.956195 
L 340.858029 220.150218 
L 341.527964 221.341064 
L 342.532867 224.681681 
L 342.867834 225.11552 
L 343.202802 225.742688 
L 344.877639 226.823611 
L 345.547574 226.553015 
L 345.882541 226.072746 
L 346.887444 225.172298 
L 348.562281 223.353034 
L 349.232216 222.547641 
L 349.567184 222.032129 
L 349.902151 221.034073 
L 350.237119 220.523223 
L 350.572086 219.394164 
L 350.907054 219.081868 
L 351.576989 217.663407 
L 352.246924 217.353359 
L 352.581891 217.639011 
L 353.921761 221.520158 
L 354.256728 221.818186 
L 354.591696 222.281716 
L 355.261631 222.695341 
L 355.931566 223.019117 
L 356.266533 223.525211 
L 357.941371 224.904579 
L 359.616208 225.193655 
L 359.951176 225.154311 
L 360.286143 225.401765 
L 361.291046 225.667184 
L 362.295948 225.608795 
L 363.300851 224.933092 
L 364.305753 223.780913 
L 365.310655 222.207677 
L 365.645623 221.796552 
L 365.98059 221.183471 
L 367.32046 220.177192 
L 368.66033 222.077828 
L 368.995298 222.130543 
L 369.330265 222.058084 
L 370.0002 222.176691 
L 370.335168 222.496842 
L 370.670135 223.000082 
L 371.005103 223.296703 
L 372.344973 225.797589 
L 372.67994 225.993463 
L 373.014908 226.375388 
L 374.689745 227.032055 
L 376.364582 226.758157 
L 377.704452 226.094454 
L 378.03942 225.723533 
L 378.374387 225.600546 
L 379.044322 224.93561 
L 379.37929 224.813134 
L 379.714257 224.471766 
L 380.049225 224.36624 
L 380.384192 223.864833 
L 380.71916 223.69374 
L 382.05903 222.47444 
L 382.393997 222.311206 
L 382.728965 221.947373 
L 383.063932 221.974779 
L 383.3989 221.467768 
L 383.733867 221.460392 
L 384.403802 221.113679 
L 384.738769 221.275104 
L 385.073737 221.574881 
L 385.408704 221.478435 
L 386.078639 222.279232 
L 386.748574 222.652089 
L 387.083542 222.646367 
L 387.418509 222.765286 
L 388.088444 223.260128 
L 388.423412 223.349682 
L 388.758379 223.771081 
L 389.428314 224.156251 
L 389.763282 224.537204 
L 390.098249 224.44058 
L 390.433217 224.669178 
L 390.768184 224.371988 
L 391.103152 224.54409 
L 392.777989 224.080772 
L 393.447924 223.675744 
L 394.452827 223.120902 
L 395.792696 222.38899 
L 396.462631 222.398957 
L 396.797599 222.310481 
L 398.137469 223.17547 
L 399.477339 225.425005 
L 400.147274 225.973019 
L 400.817209 226.295273 
L 401.487144 226.312732 
L 405.506753 224.535284 
L 406.176688 224.60869 
L 406.846623 224.528752 
L 409.526363 225.010515 
L 409.861331 225.102179 
L 410.531266 224.833305 
L 410.866233 224.887644 
L 411.201201 224.699291 
L 412.206103 224.590952 
L 413.211006 224.79179 
L 414.550876 225.374285 
L 414.885843 225.79614 
L 416.225713 226.571777 
L 417.230615 226.500883 
L 418.235518 225.955545 
L 418.570485 225.841036 
L 419.24042 225.351798 
L 419.575388 225.267388 
L 419.910355 224.895673 
L 420.245323 224.69217 
L 420.915258 224.087954 
L 421.250225 223.908847 
L 422.925063 224.315843 
L 424.264933 225.325915 
L 424.934868 226.03562 
L 425.93977 226.844651 
L 426.944672 227.21782 
L 427.614607 227.193574 
L 428.284542 226.955833 
L 428.954477 226.403036 
L 430.629315 224.597623 
L 430.964282 224.590378 
L 431.29925 224.271202 
L 433.309055 223.63285 
L 433.644022 223.691444 
L 435.31886 224.893069 
L 435.988795 225.298609 
L 437.328664 226.084946 
L 437.663632 226.091639 
L 438.333567 226.267553 
L 438.668534 226.18452 
L 439.003502 226.238632 
L 440.343372 225.749911 
L 441.348274 225.006801 
L 441.683242 224.617886 
L 442.018209 224.653537 
L 442.353177 224.496427 
L 442.688144 224.475042 
L 444.362982 224.868596 
L 444.697949 224.662166 
L 445.032917 224.593507 
L 445.367884 224.684684 
L 446.037819 225.358631 
L 446.372786 225.804416 
L 446.707754 225.983285 
L 447.377689 226.47247 
L 447.712656 226.520856 
L 448.047624 226.701468 
L 448.382591 226.724745 
L 449.052526 226.988584 
L 451.062331 227.014766 
L 452.067234 226.846113 
L 453.742071 226.376715 
L 454.746974 225.90145 
L 456.086844 224.708363 
L 458.096648 224.495604 
L 459.436518 224.69684 
L 460.106453 225.042363 
L 461.111356 225.898439 
L 462.451226 226.181965 
L 463.121161 226.104316 
L 465.130966 225.564629 
L 467.810705 225.965562 
L 469.82051 226.953302 
L 471.495348 227.298879 
L 472.835218 227.227348 
L 474.510055 226.662336 
L 475.17999 226.306344 
L 475.849925 226.135978 
L 477.189795 226.02188 
L 478.194697 226.052581 
L 479.1996 225.990886 
L 479.869535 226.094288 
L 480.53947 226.100746 
L 481.544372 226.230741 
L 482.214307 226.433173 
L 483.21921 226.543563 
L 486.233917 226.759569 
L 486.903852 226.65365 
L 488.578689 226.233257 
L 489.583592 226.390472 
L 489.918559 226.563233 
L 494.273137 227.035335 
L 494.943072 226.809115 
L 496.617909 225.925919 
L 496.952877 225.772752 
L 499.967584 225.617468 
L 503.987194 227.163442 
L 504.992096 227.210978 
L 505.662031 227.070072 
L 506.666934 226.928342 
L 508.676738 226.428686 
L 509.346673 226.42919 
L 510.351576 226.671524 
L 511.691446 227.012939 
L 512.026413 227.001244 
L 512.696348 227.190988 
L 514.706153 227.506453 
L 516.046023 227.400706 
L 519.395698 226.815926 
L 523.08034 226.90292 
L 524.085243 226.922666 
L 526.095048 226.538149 
L 528.104853 226.801728 
L 529.109755 226.69084 
L 532.124462 227.347199 
L 533.7993 227.335803 
L 535.474137 226.945548 
L 536.814007 226.857701 
L 539.493747 226.833075 
L 543.848324 227.36363 
L 546.193097 227.091786 
L 546.863032 226.98121 
L 548.202902 227.072404 
L 552.222511 227.86117 
L 553.897349 227.663849 
L 556.912056 227.305998 
L 557.916959 227.35607 
L 558.921861 227.444751 
L 560.596698 227.393367 
L 562.271536 227.352982 
L 563.946373 227.317765 
L 566.626113 227.753088 
L 568.300951 228.017309 
L 569.305853 228.061592 
L 571.650625 228.023514 
L 573.995398 227.87735 
L 577.345073 228.339834 
L 579.354878 228.458452 
L 580.35978 228.339114 
L 581.364682 228.401912 
L 582.704552 228.301296 
L 585.049325 228.753213 
L 585.71926 228.683552 
L 587.729065 228.666078 
L 588.733967 228.451698 
L 591.413707 228.757537 
L 592.753577 228.719238 
L 594.093447 229.120411 
L 595.098349 229.258878 
L 597.108154 229.391579 
L 597.778089 229.456541 
L 599.787894 229.542097 
L 600.792797 229.718591 
L 602.132666 229.746959 
L 603.807504 229.903592 
L 604.477439 229.999455 
L 607.492146 230.077376 
L 608.497049 230.163254 
L 610.506854 230.228046 
L 611.511756 230.294392 
L 612.516658 230.381325 
L 614.191496 230.511982 
L 628.26013 231.20697 
L 629.934968 231.185857 
L 632.27974 231.280508 
L 640.31896 231.52099 
L 643.668634 231.617469 
L 655.727464 231.740855 
L 669.461131 231.856735 
L 699.943172 231.969938 
L 700.278139 232.500208 
L 713.006904 232.500208 
L 713.006904 232.500208 
" clip-path="url(#pa087cc54f4)" style="fill: none; stroke: #0b3c5d; stroke-linecap: round"/>
   </g>
   <g id="patch_3">
    <path d="M 43.406904 242.580208 
L 43.406904 20.820208 
" style="fill: none; stroke: #000000; stroke-width: 2.5; stroke-linejoin: miter; stroke-linecap: square"/>
   </g>
   <g id="patch_4">
    <path d="M 713.006904 242.580208 
L 713.006904 20.820208 
" style="fill: none; stroke: #000000; stroke-width: 2.5; stroke-linejoin: miter; stroke-linecap: square"/>
   </g>
   <g id="patch_5">
    <path d="M 43.406904 242.580208 
L 713.006904 242.580208 
" style="fill: none; stroke: #000000; stroke-width: 2.5; stroke-linejoin: miter; stroke-linecap: square"/>
   </g>
   <g id="patch_6">
    <path d="M 43.406904 20.820208 
L 713.006904 20.820208 
" style="fill: none; stroke: #000000; stroke-width: 2.5; stroke-linejoin: miter; stroke-linecap: square"/>
   </g>
  </g>
 </g>
 <defs>
  <clipPath id="pa087cc54f4">
   <rect x="43.406904" y="20.820208" width="669.6" height="221.76"/>
  </clipPath>
 </defs>
</svg>
