<?xml version="1.0" encoding="utf-8" standalone="no"?>
<!DOCTYPE svg PUBLIC "-//W3C//DTD SVG 1.1//EN"
  "http://www.w3.org/Graphics/SVG/1.1/DTD/svg11.dtd">
<svg xmlns:xlink="http://www.w3.org/1999/xlink" width="720.206904pt" height="298.14077pt" viewBox="0 0 720.206904 298.14077" xmlns="http://www.w3.org/2000/svg" version="1.1">
 <metadata>
  <rdf:RDF xmlns:dc="http://purl.org/dc/elements/1.1/" xmlns:cc="http://creativecommons.org/ns#" xmlns:rdf="http://www.w3.org/1999/02/22-rdf-syntax-ns#">
   <cc:Work>
    <dc:type rdf:resource="http://purl.org/dc/dcmitype/StillImage"/>
    <dc:date>2023-02-16T12:05:55.091026</dc:date>
    <dc:format>image/svg+xml</dc:format>
    <dc:creator>
     <cc:Agent>
      <dc:title>Matplotlib v3.7.0, https://matplotlib.org/</dc:title>
     </cc:Agent>
    </dc:creator>
   </cc:Work>
  </rdf:RDF>
 </metadata>
 <defs>
  <style type="text/css">*{stroke-linejoin: round; stroke-linecap: butt}</style>
 </defs>
 <g id="figure_1">
  <g id="patch_1">
   <path d="M 0 298.14077 
L 720.206904 298.14077 
L 720.206904 0 
L 0 0 
z
" style="fill: #ffffff"/>
  </g>
  <g id="axes_1">
   <g id="patch_2">
    <path d="M 43.406904 242.580208 
L 713.006904 242.580208 
L 713.006904 20.820208 
L 43.406904 20.820208 
z
" style="fill: #ffffff"/>
   </g>
   <g id="matplotlib.axis_1">
    <g id="xtick_1">
     <g id="line2d_1">
      <defs>
       <path id="mc06680c0b8" d="M 0 0 
L 0 -3.5 
" style="stroke: #000000; stroke-width: 1.7"/>
      </defs>
      <g>
       <use xlink:href="#mc06680c0b8" x="122.993583" y="242.580208" style="stroke: #000000; stroke-width: 1.7"/>
      </g>
     </g>
     <g id="line2d_2">
      <defs>
       <path id="m7a7908bddc" d="M 0 0 
L 0 3.5 
" style="stroke: #000000; stroke-width: 1.7"/>
      </defs>
      <g>
       <use xlink:href="#m7a7908bddc" x="122.993583" y="20.820208" style="stroke: #000000; stroke-width: 1.7"/>
      </g>
     </g>
     <g id="text_1">
      <!-- $\mathdefault{2.5}$ -->
      <g transform="translate(113.645057 257.957933) scale(0.15 -0.15)">
       <defs>
        <path id="CMSS17-32" d="M 1651 1353 
C 1830 1538 2099 1761 2285 1984 
C 2464 2201 2701 2507 2701 2953 
C 2701 3655 2227 4288 1421 4288 
C 787 4288 422 3891 250 3272 
L 499 2928 
C 640 3508 838 3878 1338 3878 
C 1888 3878 2195 3431 2195 2940 
C 2195 2354 1747 1901 1408 1563 
C 1030 1187 659 805 301 409 
L 301 0 
L 2701 0 
L 2701 435 
L 1613 435 
C 1536 435 1459 428 1382 428 
L 742 428 
L 742 435 
L 1651 1353 
z
" transform="scale(0.015625)"/>
        <path id="CMSS17-2e" d="M 1088 512 
L 576 512 
L 576 0 
L 1088 0 
L 1088 512 
z
" transform="scale(0.015625)"/>
        <path id="CMSS17-35" d="M 934 3814 
L 2502 3814 
L 2502 4224 
L 467 4224 
L 467 1830 
L 896 1830 
C 1011 2103 1248 2304 1555 2304 
C 1843 2304 2163 2044 2163 1299 
C 2163 502 1709 268 1376 268 
C 966 268 589 521 422 871 
L 218 508 
C 512 51 992 -128 1376 -128 
C 2118 -128 2701 508 2701 1286 
C 2701 2083 2182 2694 1562 2694 
C 1338 2694 1120 2617 934 2464 
L 934 3814 
z
" transform="scale(0.015625)"/>
       </defs>
       <use xlink:href="#CMSS17-32" transform="scale(0.996264)"/>
       <use xlink:href="#CMSS17-2e" transform="translate(46.843624 0) scale(0.996264)"/>
       <use xlink:href="#CMSS17-35" transform="translate(72.867828 0) scale(0.996264)"/>
      </g>
     </g>
    </g>
    <g id="xtick_2">
     <g id="line2d_3">
      <g>
       <use xlink:href="#mc06680c0b8" x="202.747745" y="242.580208" style="stroke: #000000; stroke-width: 1.7"/>
      </g>
     </g>
     <g id="line2d_4">
      <g>
       <use xlink:href="#m7a7908bddc" x="202.747745" y="20.820208" style="stroke: #000000; stroke-width: 1.7"/>
      </g>
     </g>
     <g id="text_2">
      <!-- $\mathdefault{5.0}$ -->
      <g transform="translate(193.399219 257.957933) scale(0.15 -0.15)">
       <defs>
        <path id="CMSS17-30" d="M 2758 2073 
C 2758 2439 2752 3120 2490 3647 
C 2227 4153 1805 4288 1504 4288 
C 1069 4288 698 4031 506 3621 
C 301 3191 243 2748 243 2073 
C 243 1611 262 1046 493 551 
C 755 6 1197 -128 1498 -128 
C 1894 -128 2278 83 2496 525 
C 2720 988 2758 1495 2758 2073 
z
M 1498 262 
C 1011 262 864 821 819 1007 
C 742 1328 730 1636 730 2144 
C 730 2542 730 2992 851 3345 
C 998 3756 1254 3897 1498 3897 
C 1971 3897 2125 3422 2176 3255 
C 2272 2915 2272 2516 2272 2144 
C 2272 1546 2272 262 1498 262 
z
" transform="scale(0.015625)"/>
       </defs>
       <use xlink:href="#CMSS17-35" transform="scale(0.996264)"/>
       <use xlink:href="#CMSS17-2e" transform="translate(46.843624 0) scale(0.996264)"/>
       <use xlink:href="#CMSS17-30" transform="translate(72.867828 0) scale(0.996264)"/>
      </g>
     </g>
    </g>
    <g id="xtick_3">
     <g id="line2d_5">
      <g>
       <use xlink:href="#mc06680c0b8" x="282.501908" y="242.580208" style="stroke: #000000; stroke-width: 1.7"/>
      </g>
     </g>
     <g id="line2d_6">
      <g>
       <use xlink:href="#m7a7908bddc" x="282.501908" y="20.820208" style="stroke: #000000; stroke-width: 1.7"/>
      </g>
     </g>
     <g id="text_3">
      <!-- $\mathdefault{7.5}$ -->
      <g transform="translate(273.153382 257.957933) scale(0.15 -0.15)">
       <defs>
        <path id="CMSS17-37" d="M 1389 3788 
C 1466 3788 1542 3795 1619 3795 
L 2355 3795 
C 1440 2715 915 1350 915 -64 
L 1427 -64 
C 1427 1305 1875 2695 2752 3807 
L 2752 4224 
L 250 4224 
L 250 3788 
L 1389 3788 
z
" transform="scale(0.015625)"/>
       </defs>
       <use xlink:href="#CMSS17-37" transform="scale(0.996264)"/>
       <use xlink:href="#CMSS17-2e" transform="translate(46.843624 0) scale(0.996264)"/>
       <use xlink:href="#CMSS17-35" transform="translate(72.867828 0) scale(0.996264)"/>
      </g>
     </g>
    </g>
    <g id="xtick_4">
     <g id="line2d_7">
      <g>
       <use xlink:href="#mc06680c0b8" x="362.256071" y="242.580208" style="stroke: #000000; stroke-width: 1.7"/>
      </g>
     </g>
     <g id="line2d_8">
      <g>
       <use xlink:href="#m7a7908bddc" x="362.256071" y="20.820208" style="stroke: #000000; stroke-width: 1.7"/>
      </g>
     </g>
     <g id="text_4">
      <!-- $\mathdefault{10.0}$ -->
      <g transform="translate(349.249426 257.957933) scale(0.15 -0.15)">
       <defs>
        <path id="CMSS17-31" d="M 1818 4288 
L 1696 4288 
C 1350 3949 947 3902 538 3891 
L 538 3520 
C 723 3526 1024 3539 1325 3673 
L 1325 371 
L 570 371 
L 570 0 
L 2573 0 
L 2573 371 
L 1818 371 
L 1818 4288 
z
" transform="scale(0.015625)"/>
       </defs>
       <use xlink:href="#CMSS17-31" transform="scale(0.996264)"/>
       <use xlink:href="#CMSS17-30" transform="translate(46.843624 0) scale(0.996264)"/>
       <use xlink:href="#CMSS17-2e" transform="translate(93.687247 0) scale(0.996264)"/>
       <use xlink:href="#CMSS17-30" transform="translate(119.711452 0) scale(0.996264)"/>
      </g>
     </g>
    </g>
    <g id="xtick_5">
     <g id="line2d_9">
      <g>
       <use xlink:href="#mc06680c0b8" x="442.010234" y="242.580208" style="stroke: #000000; stroke-width: 1.7"/>
      </g>
     </g>
     <g id="line2d_10">
      <g>
       <use xlink:href="#m7a7908bddc" x="442.010234" y="20.820208" style="stroke: #000000; stroke-width: 1.7"/>
      </g>
     </g>
     <g id="text_5">
      <!-- $\mathdefault{12.5}$ -->
      <g transform="translate(429.003589 257.957933) scale(0.15 -0.15)">
       <use xlink:href="#CMSS17-31" transform="scale(0.996264)"/>
       <use xlink:href="#CMSS17-32" transform="translate(46.843624 0) scale(0.996264)"/>
       <use xlink:href="#CMSS17-2e" transform="translate(93.687247 0) scale(0.996264)"/>
       <use xlink:href="#CMSS17-35" transform="translate(119.711452 0) scale(0.996264)"/>
      </g>
     </g>
    </g>
    <g id="xtick_6">
     <g id="line2d_11">
      <g>
       <use xlink:href="#mc06680c0b8" x="521.764397" y="242.580208" style="stroke: #000000; stroke-width: 1.7"/>
      </g>
     </g>
     <g id="line2d_12">
      <g>
       <use xlink:href="#m7a7908bddc" x="521.764397" y="20.820208" style="stroke: #000000; stroke-width: 1.7"/>
      </g>
     </g>
     <g id="text_6">
      <!-- $\mathdefault{15.0}$ -->
      <g transform="translate(508.757752 257.957933) scale(0.15 -0.15)">
       <use xlink:href="#CMSS17-31" transform="scale(0.996264)"/>
       <use xlink:href="#CMSS17-35" transform="translate(46.843624 0) scale(0.996264)"/>
       <use xlink:href="#CMSS17-2e" transform="translate(93.687247 0) scale(0.996264)"/>
       <use xlink:href="#CMSS17-30" transform="translate(119.711452 0) scale(0.996264)"/>
      </g>
     </g>
    </g>
    <g id="xtick_7">
     <g id="line2d_13">
      <g>
       <use xlink:href="#mc06680c0b8" x="601.518559" y="242.580208" style="stroke: #000000; stroke-width: 1.7"/>
      </g>
     </g>
     <g id="line2d_14">
      <g>
       <use xlink:href="#m7a7908bddc" x="601.518559" y="20.820208" style="stroke: #000000; stroke-width: 1.7"/>
      </g>
     </g>
     <g id="text_7">
      <!-- $\mathdefault{17.5}$ -->
      <g transform="translate(588.511914 257.957933) scale(0.15 -0.15)">
       <use xlink:href="#CMSS17-31" transform="scale(0.996264)"/>
       <use xlink:href="#CMSS17-37" transform="translate(46.843624 0) scale(0.996264)"/>
       <use xlink:href="#CMSS17-2e" transform="translate(93.687247 0) scale(0.996264)"/>
       <use xlink:href="#CMSS17-35" transform="translate(119.711452 0) scale(0.996264)"/>
      </g>
     </g>
    </g>
    <g id="xtick_8">
     <g id="line2d_15">
      <g>
       <use xlink:href="#mc06680c0b8" x="681.272722" y="242.580208" style="stroke: #000000; stroke-width: 1.7"/>
      </g>
     </g>
     <g id="line2d_16">
      <g>
       <use xlink:href="#m7a7908bddc" x="681.272722" y="20.820208" style="stroke: #000000; stroke-width: 1.7"/>
      </g>
     </g>
     <g id="text_8">
      <!-- $\mathdefault{20.0}$ -->
      <g transform="translate(668.266077 257.957933) scale(0.15 -0.15)">
       <use xlink:href="#CMSS17-32" transform="scale(0.996264)"/>
       <use xlink:href="#CMSS17-30" transform="translate(46.843624 0) scale(0.996264)"/>
       <use xlink:href="#CMSS17-2e" transform="translate(93.687247 0) scale(0.996264)"/>
       <use xlink:href="#CMSS17-30" transform="translate(119.711452 0) scale(0.996264)"/>
      </g>
     </g>
    </g>
    <g id="xtick_9">
     <g id="line2d_17">
      <defs>
       <path id="mf605a82bb1" d="M 0 0 
L 0 -2 
" style="stroke: #000000; stroke-width: 0.5"/>
      </defs>
      <g>
       <use xlink:href="#mf605a82bb1" x="59.190252" y="242.580208" style="stroke: #000000; stroke-width: 0.5"/>
      </g>
     </g>
     <g id="line2d_18">
      <defs>
       <path id="m1bb176a4f0" d="M 0 0 
L 0 2 
" style="stroke: #000000; stroke-width: 0.5"/>
      </defs>
      <g>
       <use xlink:href="#m1bb176a4f0" x="59.190252" y="20.820208" style="stroke: #000000; stroke-width: 0.5"/>
      </g>
     </g>
    </g>
    <g id="xtick_10">
     <g id="line2d_19">
      <g>
       <use xlink:href="#mf605a82bb1" x="75.141085" y="242.580208" style="stroke: #000000; stroke-width: 0.5"/>
      </g>
     </g>
     <g id="line2d_20">
      <g>
       <use xlink:href="#m1bb176a4f0" x="75.141085" y="20.820208" style="stroke: #000000; stroke-width: 0.5"/>
      </g>
     </g>
    </g>
    <g id="xtick_11">
     <g id="line2d_21">
      <g>
       <use xlink:href="#mf605a82bb1" x="91.091917" y="242.580208" style="stroke: #000000; stroke-width: 0.5"/>
      </g>
     </g>
     <g id="line2d_22">
      <g>
       <use xlink:href="#m1bb176a4f0" x="91.091917" y="20.820208" style="stroke: #000000; stroke-width: 0.5"/>
      </g>
     </g>
    </g>
    <g id="xtick_12">
     <g id="line2d_23">
      <g>
       <use xlink:href="#mf605a82bb1" x="107.04275" y="242.580208" style="stroke: #000000; stroke-width: 0.5"/>
      </g>
     </g>
     <g id="line2d_24">
      <g>
       <use xlink:href="#m1bb176a4f0" x="107.04275" y="20.820208" style="stroke: #000000; stroke-width: 0.5"/>
      </g>
     </g>
    </g>
    <g id="xtick_13">
     <g id="line2d_25">
      <g>
       <use xlink:href="#mf605a82bb1" x="138.944415" y="242.580208" style="stroke: #000000; stroke-width: 0.5"/>
      </g>
     </g>
     <g id="line2d_26">
      <g>
       <use xlink:href="#m1bb176a4f0" x="138.944415" y="20.820208" style="stroke: #000000; stroke-width: 0.5"/>
      </g>
     </g>
    </g>
    <g id="xtick_14">
     <g id="line2d_27">
      <g>
       <use xlink:href="#mf605a82bb1" x="154.895248" y="242.580208" style="stroke: #000000; stroke-width: 0.5"/>
      </g>
     </g>
     <g id="line2d_28">
      <g>
       <use xlink:href="#m1bb176a4f0" x="154.895248" y="20.820208" style="stroke: #000000; stroke-width: 0.5"/>
      </g>
     </g>
    </g>
    <g id="xtick_15">
     <g id="line2d_29">
      <g>
       <use xlink:href="#mf605a82bb1" x="170.84608" y="242.580208" style="stroke: #000000; stroke-width: 0.5"/>
      </g>
     </g>
     <g id="line2d_30">
      <g>
       <use xlink:href="#m1bb176a4f0" x="170.84608" y="20.820208" style="stroke: #000000; stroke-width: 0.5"/>
      </g>
     </g>
    </g>
    <g id="xtick_16">
     <g id="line2d_31">
      <g>
       <use xlink:href="#mf605a82bb1" x="186.796913" y="242.580208" style="stroke: #000000; stroke-width: 0.5"/>
      </g>
     </g>
     <g id="line2d_32">
      <g>
       <use xlink:href="#m1bb176a4f0" x="186.796913" y="20.820208" style="stroke: #000000; stroke-width: 0.5"/>
      </g>
     </g>
    </g>
    <g id="xtick_17">
     <g id="line2d_33">
      <g>
       <use xlink:href="#mf605a82bb1" x="218.698578" y="242.580208" style="stroke: #000000; stroke-width: 0.5"/>
      </g>
     </g>
     <g id="line2d_34">
      <g>
       <use xlink:href="#m1bb176a4f0" x="218.698578" y="20.820208" style="stroke: #000000; stroke-width: 0.5"/>
      </g>
     </g>
    </g>
    <g id="xtick_18">
     <g id="line2d_35">
      <g>
       <use xlink:href="#mf605a82bb1" x="234.649411" y="242.580208" style="stroke: #000000; stroke-width: 0.5"/>
      </g>
     </g>
     <g id="line2d_36">
      <g>
       <use xlink:href="#m1bb176a4f0" x="234.649411" y="20.820208" style="stroke: #000000; stroke-width: 0.5"/>
      </g>
     </g>
    </g>
    <g id="xtick_19">
     <g id="line2d_37">
      <g>
       <use xlink:href="#mf605a82bb1" x="250.600243" y="242.580208" style="stroke: #000000; stroke-width: 0.5"/>
      </g>
     </g>
     <g id="line2d_38">
      <g>
       <use xlink:href="#m1bb176a4f0" x="250.600243" y="20.820208" style="stroke: #000000; stroke-width: 0.5"/>
      </g>
     </g>
    </g>
    <g id="xtick_20">
     <g id="line2d_39">
      <g>
       <use xlink:href="#mf605a82bb1" x="266.551076" y="242.580208" style="stroke: #000000; stroke-width: 0.5"/>
      </g>
     </g>
     <g id="line2d_40">
      <g>
       <use xlink:href="#m1bb176a4f0" x="266.551076" y="20.820208" style="stroke: #000000; stroke-width: 0.5"/>
      </g>
     </g>
    </g>
    <g id="xtick_21">
     <g id="line2d_41">
      <g>
       <use xlink:href="#mf605a82bb1" x="298.452741" y="242.580208" style="stroke: #000000; stroke-width: 0.5"/>
      </g>
     </g>
     <g id="line2d_42">
      <g>
       <use xlink:href="#m1bb176a4f0" x="298.452741" y="20.820208" style="stroke: #000000; stroke-width: 0.5"/>
      </g>
     </g>
    </g>
    <g id="xtick_22">
     <g id="line2d_43">
      <g>
       <use xlink:href="#mf605a82bb1" x="314.403573" y="242.580208" style="stroke: #000000; stroke-width: 0.5"/>
      </g>
     </g>
     <g id="line2d_44">
      <g>
       <use xlink:href="#m1bb176a4f0" x="314.403573" y="20.820208" style="stroke: #000000; stroke-width: 0.5"/>
      </g>
     </g>
    </g>
    <g id="xtick_23">
     <g id="line2d_45">
      <g>
       <use xlink:href="#mf605a82bb1" x="330.354406" y="242.580208" style="stroke: #000000; stroke-width: 0.5"/>
      </g>
     </g>
     <g id="line2d_46">
      <g>
       <use xlink:href="#m1bb176a4f0" x="330.354406" y="20.820208" style="stroke: #000000; stroke-width: 0.5"/>
      </g>
     </g>
    </g>
    <g id="xtick_24">
     <g id="line2d_47">
      <g>
       <use xlink:href="#mf605a82bb1" x="346.305238" y="242.580208" style="stroke: #000000; stroke-width: 0.5"/>
      </g>
     </g>
     <g id="line2d_48">
      <g>
       <use xlink:href="#m1bb176a4f0" x="346.305238" y="20.820208" style="stroke: #000000; stroke-width: 0.5"/>
      </g>
     </g>
    </g>
    <g id="xtick_25">
     <g id="line2d_49">
      <g>
       <use xlink:href="#mf605a82bb1" x="378.206904" y="242.580208" style="stroke: #000000; stroke-width: 0.5"/>
      </g>
     </g>
     <g id="line2d_50">
      <g>
       <use xlink:href="#m1bb176a4f0" x="378.206904" y="20.820208" style="stroke: #000000; stroke-width: 0.5"/>
      </g>
     </g>
    </g>
    <g id="xtick_26">
     <g id="line2d_51">
      <g>
       <use xlink:href="#mf605a82bb1" x="394.157736" y="242.580208" style="stroke: #000000; stroke-width: 0.5"/>
      </g>
     </g>
     <g id="line2d_52">
      <g>
       <use xlink:href="#m1bb176a4f0" x="394.157736" y="20.820208" style="stroke: #000000; stroke-width: 0.5"/>
      </g>
     </g>
    </g>
    <g id="xtick_27">
     <g id="line2d_53">
      <g>
       <use xlink:href="#mf605a82bb1" x="410.108569" y="242.580208" style="stroke: #000000; stroke-width: 0.5"/>
      </g>
     </g>
     <g id="line2d_54">
      <g>
       <use xlink:href="#m1bb176a4f0" x="410.108569" y="20.820208" style="stroke: #000000; stroke-width: 0.5"/>
      </g>
     </g>
    </g>
    <g id="xtick_28">
     <g id="line2d_55">
      <g>
       <use xlink:href="#mf605a82bb1" x="426.059401" y="242.580208" style="stroke: #000000; stroke-width: 0.5"/>
      </g>
     </g>
     <g id="line2d_56">
      <g>
       <use xlink:href="#m1bb176a4f0" x="426.059401" y="20.820208" style="stroke: #000000; stroke-width: 0.5"/>
      </g>
     </g>
    </g>
    <g id="xtick_29">
     <g id="line2d_57">
      <g>
       <use xlink:href="#mf605a82bb1" x="457.961066" y="242.580208" style="stroke: #000000; stroke-width: 0.5"/>
      </g>
     </g>
     <g id="line2d_58">
      <g>
       <use xlink:href="#m1bb176a4f0" x="457.961066" y="20.820208" style="stroke: #000000; stroke-width: 0.5"/>
      </g>
     </g>
    </g>
    <g id="xtick_30">
     <g id="line2d_59">
      <g>
       <use xlink:href="#mf605a82bb1" x="473.911899" y="242.580208" style="stroke: #000000; stroke-width: 0.5"/>
      </g>
     </g>
     <g id="line2d_60">
      <g>
       <use xlink:href="#m1bb176a4f0" x="473.911899" y="20.820208" style="stroke: #000000; stroke-width: 0.5"/>
      </g>
     </g>
    </g>
    <g id="xtick_31">
     <g id="line2d_61">
      <g>
       <use xlink:href="#mf605a82bb1" x="489.862731" y="242.580208" style="stroke: #000000; stroke-width: 0.5"/>
      </g>
     </g>
     <g id="line2d_62">
      <g>
       <use xlink:href="#m1bb176a4f0" x="489.862731" y="20.820208" style="stroke: #000000; stroke-width: 0.5"/>
      </g>
     </g>
    </g>
    <g id="xtick_32">
     <g id="line2d_63">
      <g>
       <use xlink:href="#mf605a82bb1" x="505.813564" y="242.580208" style="stroke: #000000; stroke-width: 0.5"/>
      </g>
     </g>
     <g id="line2d_64">
      <g>
       <use xlink:href="#m1bb176a4f0" x="505.813564" y="20.820208" style="stroke: #000000; stroke-width: 0.5"/>
      </g>
     </g>
    </g>
    <g id="xtick_33">
     <g id="line2d_65">
      <g>
       <use xlink:href="#mf605a82bb1" x="537.715229" y="242.580208" style="stroke: #000000; stroke-width: 0.5"/>
      </g>
     </g>
     <g id="line2d_66">
      <g>
       <use xlink:href="#m1bb176a4f0" x="537.715229" y="20.820208" style="stroke: #000000; stroke-width: 0.5"/>
      </g>
     </g>
    </g>
    <g id="xtick_34">
     <g id="line2d_67">
      <g>
       <use xlink:href="#mf605a82bb1" x="553.666062" y="242.580208" style="stroke: #000000; stroke-width: 0.5"/>
      </g>
     </g>
     <g id="line2d_68">
      <g>
       <use xlink:href="#m1bb176a4f0" x="553.666062" y="20.820208" style="stroke: #000000; stroke-width: 0.5"/>
      </g>
     </g>
    </g>
    <g id="xtick_35">
     <g id="line2d_69">
      <g>
       <use xlink:href="#mf605a82bb1" x="569.616894" y="242.580208" style="stroke: #000000; stroke-width: 0.5"/>
      </g>
     </g>
     <g id="line2d_70">
      <g>
       <use xlink:href="#m1bb176a4f0" x="569.616894" y="20.820208" style="stroke: #000000; stroke-width: 0.5"/>
      </g>
     </g>
    </g>
    <g id="xtick_36">
     <g id="line2d_71">
      <g>
       <use xlink:href="#mf605a82bb1" x="585.567727" y="242.580208" style="stroke: #000000; stroke-width: 0.5"/>
      </g>
     </g>
     <g id="line2d_72">
      <g>
       <use xlink:href="#m1bb176a4f0" x="585.567727" y="20.820208" style="stroke: #000000; stroke-width: 0.5"/>
      </g>
     </g>
    </g>
    <g id="xtick_37">
     <g id="line2d_73">
      <g>
       <use xlink:href="#mf605a82bb1" x="617.469392" y="242.580208" style="stroke: #000000; stroke-width: 0.5"/>
      </g>
     </g>
     <g id="line2d_74">
      <g>
       <use xlink:href="#m1bb176a4f0" x="617.469392" y="20.820208" style="stroke: #000000; stroke-width: 0.5"/>
      </g>
     </g>
    </g>
    <g id="xtick_38">
     <g id="line2d_75">
      <g>
       <use xlink:href="#mf605a82bb1" x="633.420225" y="242.580208" style="stroke: #000000; stroke-width: 0.5"/>
      </g>
     </g>
     <g id="line2d_76">
      <g>
       <use xlink:href="#m1bb176a4f0" x="633.420225" y="20.820208" style="stroke: #000000; stroke-width: 0.5"/>
      </g>
     </g>
    </g>
    <g id="xtick_39">
     <g id="line2d_77">
      <g>
       <use xlink:href="#mf605a82bb1" x="649.371057" y="242.580208" style="stroke: #000000; stroke-width: 0.5"/>
      </g>
     </g>
     <g id="line2d_78">
      <g>
       <use xlink:href="#m1bb176a4f0" x="649.371057" y="20.820208" style="stroke: #000000; stroke-width: 0.5"/>
      </g>
     </g>
    </g>
    <g id="xtick_40">
     <g id="line2d_79">
      <g>
       <use xlink:href="#mf605a82bb1" x="665.32189" y="242.580208" style="stroke: #000000; stroke-width: 0.5"/>
      </g>
     </g>
     <g id="line2d_80">
      <g>
       <use xlink:href="#m1bb176a4f0" x="665.32189" y="20.820208" style="stroke: #000000; stroke-width: 0.5"/>
      </g>
     </g>
    </g>
    <g id="xtick_41">
     <g id="line2d_81">
      <g>
       <use xlink:href="#mf605a82bb1" x="697.223555" y="242.580208" style="stroke: #000000; stroke-width: 0.5"/>
      </g>
     </g>
     <g id="line2d_82">
      <g>
       <use xlink:href="#m1bb176a4f0" x="697.223555" y="20.820208" style="stroke: #000000; stroke-width: 0.5"/>
      </g>
     </g>
    </g>
    <g id="text_9">
     <!-- $Q\;[\mathrm{\AA}^{-1}]$ -->
     <g transform="translate(347.021709 285.976126) scale(0.2 -0.2)">
      <defs>
       <path id="CMSSI17-51" d="M 3130 -832 
L 3757 -832 
L 3251 211 
C 4230 867 4634 1988 4634 2800 
C 4634 3812 4038 4544 3181 4544 
C 1946 4544 736 3084 736 1602 
C 736 616 1318 -128 2195 -128 
C 2419 -128 2605 -77 2765 -26 
L 3130 -832 
z
M 2752 1222 
L 2202 1222 
L 2605 326 
C 2566 313 2426 275 2285 275 
C 1651 275 1261 842 1261 1608 
C 1261 2865 2144 4140 3091 4140 
C 3706 4140 4109 3593 4109 2794 
C 4109 2291 3917 1209 3078 571 
L 3072 571 
L 2752 1222 
z
" transform="scale(0.015625)"/>
       <path id="CMSS17-5b" d="M 1613 -1600 
L 1613 -1210 
L 1062 -1210 
L 1062 4409 
L 1613 4409 
L 1613 4800 
L 595 4800 
L 595 -1600 
L 1613 -1600 
z
" transform="scale(0.015625)"/>
       <path id="CMSS17-17" d="M 2669 3855 
C 2669 4147 2381 4416 1997 4416 
C 1613 4416 1325 4147 1325 3855 
C 1325 3564 1613 3295 1997 3295 
C 2381 3295 2669 3564 2669 3855 
z
M 1997 3584 
C 1856 3584 1664 3628 1664 3855 
C 1664 4071 1837 4127 1997 4127 
C 2138 4127 2330 4083 2330 3855 
C 2330 3640 2157 3584 1997 3584 
z
" transform="scale(0.015625)"/>
       <path id="CMSS17-41" d="M 2272 4416 
L 1722 4416 
L 166 0 
L 653 0 
L 1101 1280 
L 2816 1280 
L 3270 0 
L 3827 0 
L 2272 4416 
z
M 2694 1638 
L 1222 1638 
C 1530 2530 1914 3638 1958 3924 
L 1965 3924 
C 2010 3663 2138 3281 2246 2956 
L 2694 1638 
z
" transform="scale(0.015625)"/>
       <path id="CMSY10-0" d="M 4218 1472 
C 4326 1472 4442 1472 4442 1600 
C 4442 1728 4326 1728 4218 1728 
L 755 1728 
C 646 1728 531 1728 531 1600 
C 531 1472 646 1472 755 1472 
L 4218 1472 
z
" transform="scale(0.015625)"/>
       <path id="CMSS17-5d" d="M 1146 4800 
L 128 4800 
L 128 4409 
L 678 4409 
L 678 -1210 
L 128 -1210 
L 128 -1600 
L 1146 -1600 
L 1146 4800 
z
" transform="scale(0.015625)"/>
      </defs>
      <use xlink:href="#CMSSI17-51" transform="scale(0.996264)"/>
      <use xlink:href="#CMSS17-5b" transform="translate(104.389697 0) scale(0.996264)"/>
      <use xlink:href="#CMSS17-17" transform="translate(131.575136 17.618744) scale(0.996264)"/>
      <use xlink:href="#CMSS17-41" transform="translate(131.575136 0) scale(0.996264)"/>
      <use xlink:href="#CMSY10-0" transform="translate(193.792991 59.877267) scale(0.697382)"/>
      <use xlink:href="#CMSS17-31" transform="translate(248.033984 59.877267) scale(0.697382)"/>
      <use xlink:href="#CMSS17-5d" transform="translate(281.322497 0) scale(0.996264)"/>
     </g>
    </g>
   </g>
   <g id="matplotlib.axis_2">
    <g id="ytick_1">
     <g id="line2d_83">
      <defs>
       <path id="mca6bd4bf2e" d="M 0 0 
L 3.5 0 
" style="stroke: #000000; stroke-width: 1.7"/>
      </defs>
      <g>
       <use xlink:href="#mca6bd4bf2e" x="43.406904" y="232.500208" style="stroke: #000000; stroke-width: 1.7"/>
      </g>
     </g>
     <g id="line2d_84">
      <defs>
       <path id="m63f89cdada" d="M 0 0 
L -3.5 0 
" style="stroke: #000000; stroke-width: 1.7"/>
      </defs>
      <g>
       <use xlink:href="#m63f89cdada" x="713.006904" y="232.500208" style="stroke: #000000; stroke-width: 1.7"/>
      </g>
     </g>
     <g id="text_10">
      <!-- $\mathdefault{0}$ -->
      <g transform="translate(31.090666 237.689071) scale(0.15 -0.15)">
       <use xlink:href="#CMSS17-30" transform="scale(0.996264)"/>
      </g>
     </g>
    </g>
    <g id="ytick_2">
     <g id="line2d_85">
      <g>
       <use xlink:href="#mca6bd4bf2e" x="43.406904" y="187.880956" style="stroke: #000000; stroke-width: 1.7"/>
      </g>
     </g>
     <g id="line2d_86">
      <g>
       <use xlink:href="#m63f89cdada" x="713.006904" y="187.880956" style="stroke: #000000; stroke-width: 1.7"/>
      </g>
     </g>
     <g id="text_11">
      <!-- $\mathdefault{2}$ -->
      <g transform="translate(31.090666 193.069818) scale(0.15 -0.15)">
       <use xlink:href="#CMSS17-32" transform="scale(0.996264)"/>
      </g>
     </g>
    </g>
    <g id="ytick_3">
     <g id="line2d_87">
      <g>
       <use xlink:href="#mca6bd4bf2e" x="43.406904" y="143.261704" style="stroke: #000000; stroke-width: 1.7"/>
      </g>
     </g>
     <g id="line2d_88">
      <g>
       <use xlink:href="#m63f89cdada" x="713.006904" y="143.261704" style="stroke: #000000; stroke-width: 1.7"/>
      </g>
     </g>
     <g id="text_12">
      <!-- $\mathdefault{4}$ -->
      <g transform="translate(31.090666 148.450566) scale(0.15 -0.15)">
       <defs>
        <path id="CMSS17-34" d="M 2253 1088 
L 2835 1088 
L 2835 1478 
L 2253 1478 
L 2253 4224 
L 1690 4224 
L 166 1478 
L 166 1088 
L 1747 1088 
L 1747 0 
L 2253 0 
L 2253 1088 
z
M 659 1478 
C 1030 2139 1766 3474 1766 3927 
L 1766 1478 
L 659 1478 
z
" transform="scale(0.015625)"/>
       </defs>
       <use xlink:href="#CMSS17-34" transform="scale(0.996264)"/>
      </g>
     </g>
    </g>
    <g id="ytick_4">
     <g id="line2d_89">
      <g>
       <use xlink:href="#mca6bd4bf2e" x="43.406904" y="98.642451" style="stroke: #000000; stroke-width: 1.7"/>
      </g>
     </g>
     <g id="line2d_90">
      <g>
       <use xlink:href="#m63f89cdada" x="713.006904" y="98.642451" style="stroke: #000000; stroke-width: 1.7"/>
      </g>
     </g>
     <g id="text_13">
      <!-- $\mathdefault{6}$ -->
      <g transform="translate(31.090666 103.831314) scale(0.15 -0.15)">
       <defs>
        <path id="CMSS17-36" d="M 2496 4159 
C 2227 4268 2035 4288 1856 4288 
C 1024 4288 250 3408 250 2023 
C 250 268 986 -128 1510 -128 
C 1798 -128 2086 -39 2362 281 
C 2643 619 2752 900 2752 1392 
C 2752 2183 2362 2886 1779 2886 
C 1357 2886 992 2662 768 2381 
C 832 3290 1254 3897 1862 3897 
C 2029 3897 2246 3871 2496 3760 
L 2496 4159 
z
M 774 1372 
C 774 1423 774 1455 781 1551 
C 781 2049 1069 2496 1536 2496 
C 1837 2496 1990 2336 2106 2138 
C 2240 1889 2246 1653 2246 1392 
C 2246 1143 2246 894 2099 638 
C 1978 441 1818 268 1510 268 
C 902 268 800 1117 774 1372 
z
" transform="scale(0.015625)"/>
       </defs>
       <use xlink:href="#CMSS17-36" transform="scale(0.996264)"/>
      </g>
     </g>
    </g>
    <g id="ytick_5">
     <g id="line2d_91">
      <g>
       <use xlink:href="#mca6bd4bf2e" x="43.406904" y="54.023199" style="stroke: #000000; stroke-width: 1.7"/>
      </g>
     </g>
     <g id="line2d_92">
      <g>
       <use xlink:href="#m63f89cdada" x="713.006904" y="54.023199" style="stroke: #000000; stroke-width: 1.7"/>
      </g>
     </g>
     <g id="text_14">
      <!-- $\mathdefault{8}$ -->
      <g transform="translate(31.090666 59.212061) scale(0.15 -0.15)">
       <defs>
        <path id="CMSS17-38" d="M 1933 2246 
C 2419 2406 2669 2793 2669 3174 
C 2669 3774 2157 4288 1504 4288 
C 826 4288 333 3755 333 3174 
C 333 2799 576 2412 1069 2246 
C 442 2003 250 1516 250 1152 
C 250 448 819 -128 1498 -128 
C 2202 -128 2752 460 2752 1152 
C 2752 1574 2502 2022 1933 2246 
z
M 1504 2438 
C 1075 2438 787 2728 787 3167 
C 787 3613 1075 3897 1504 3897 
C 1901 3897 2214 3639 2214 3167 
C 2214 2703 1907 2438 1504 2438 
z
M 1504 268 
C 1139 268 749 518 749 1158 
C 749 1817 1184 2048 1498 2048 
C 1843 2048 2253 1804 2253 1158 
C 2253 492 1830 268 1504 268 
z
" transform="scale(0.015625)"/>
       </defs>
       <use xlink:href="#CMSS17-38" transform="scale(0.996264)"/>
      </g>
     </g>
    </g>
    <g id="ytick_6">
     <g id="line2d_93">
      <defs>
       <path id="m5510286d80" d="M 0 0 
L 2 0 
" style="stroke: #000000; stroke-width: 0.5"/>
      </defs>
      <g>
       <use xlink:href="#m5510286d80" x="43.406904" y="221.345395" style="stroke: #000000; stroke-width: 0.5"/>
      </g>
     </g>
     <g id="line2d_94">
      <defs>
       <path id="m2a7a5f6b4d" d="M 0 0 
L -2 0 
" style="stroke: #000000; stroke-width: 0.5"/>
      </defs>
      <g>
       <use xlink:href="#m2a7a5f6b4d" x="713.006904" y="221.345395" style="stroke: #000000; stroke-width: 0.5"/>
      </g>
     </g>
    </g>
    <g id="ytick_7">
     <g id="line2d_95">
      <g>
       <use xlink:href="#m5510286d80" x="43.406904" y="210.190582" style="stroke: #000000; stroke-width: 0.5"/>
      </g>
     </g>
     <g id="line2d_96">
      <g>
       <use xlink:href="#m2a7a5f6b4d" x="713.006904" y="210.190582" style="stroke: #000000; stroke-width: 0.5"/>
      </g>
     </g>
    </g>
    <g id="ytick_8">
     <g id="line2d_97">
      <g>
       <use xlink:href="#m5510286d80" x="43.406904" y="199.035769" style="stroke: #000000; stroke-width: 0.5"/>
      </g>
     </g>
     <g id="line2d_98">
      <g>
       <use xlink:href="#m2a7a5f6b4d" x="713.006904" y="199.035769" style="stroke: #000000; stroke-width: 0.5"/>
      </g>
     </g>
    </g>
    <g id="ytick_9">
     <g id="line2d_99">
      <g>
       <use xlink:href="#m5510286d80" x="43.406904" y="176.726143" style="stroke: #000000; stroke-width: 0.5"/>
      </g>
     </g>
     <g id="line2d_100">
      <g>
       <use xlink:href="#m2a7a5f6b4d" x="713.006904" y="176.726143" style="stroke: #000000; stroke-width: 0.5"/>
      </g>
     </g>
    </g>
    <g id="ytick_10">
     <g id="line2d_101">
      <g>
       <use xlink:href="#m5510286d80" x="43.406904" y="165.57133" style="stroke: #000000; stroke-width: 0.5"/>
      </g>
     </g>
     <g id="line2d_102">
      <g>
       <use xlink:href="#m2a7a5f6b4d" x="713.006904" y="165.57133" style="stroke: #000000; stroke-width: 0.5"/>
      </g>
     </g>
    </g>
    <g id="ytick_11">
     <g id="line2d_103">
      <g>
       <use xlink:href="#m5510286d80" x="43.406904" y="154.416517" style="stroke: #000000; stroke-width: 0.5"/>
      </g>
     </g>
     <g id="line2d_104">
      <g>
       <use xlink:href="#m2a7a5f6b4d" x="713.006904" y="154.416517" style="stroke: #000000; stroke-width: 0.5"/>
      </g>
     </g>
    </g>
    <g id="ytick_12">
     <g id="line2d_105">
      <g>
       <use xlink:href="#m5510286d80" x="43.406904" y="132.106891" style="stroke: #000000; stroke-width: 0.5"/>
      </g>
     </g>
     <g id="line2d_106">
      <g>
       <use xlink:href="#m2a7a5f6b4d" x="713.006904" y="132.106891" style="stroke: #000000; stroke-width: 0.5"/>
      </g>
     </g>
    </g>
    <g id="ytick_13">
     <g id="line2d_107">
      <g>
       <use xlink:href="#m5510286d80" x="43.406904" y="120.952077" style="stroke: #000000; stroke-width: 0.5"/>
      </g>
     </g>
     <g id="line2d_108">
      <g>
       <use xlink:href="#m2a7a5f6b4d" x="713.006904" y="120.952077" style="stroke: #000000; stroke-width: 0.5"/>
      </g>
     </g>
    </g>
    <g id="ytick_14">
     <g id="line2d_109">
      <g>
       <use xlink:href="#m5510286d80" x="43.406904" y="109.797264" style="stroke: #000000; stroke-width: 0.5"/>
      </g>
     </g>
     <g id="line2d_110">
      <g>
       <use xlink:href="#m2a7a5f6b4d" x="713.006904" y="109.797264" style="stroke: #000000; stroke-width: 0.5"/>
      </g>
     </g>
    </g>
    <g id="ytick_15">
     <g id="line2d_111">
      <g>
       <use xlink:href="#m5510286d80" x="43.406904" y="87.487638" style="stroke: #000000; stroke-width: 0.5"/>
      </g>
     </g>
     <g id="line2d_112">
      <g>
       <use xlink:href="#m2a7a5f6b4d" x="713.006904" y="87.487638" style="stroke: #000000; stroke-width: 0.5"/>
      </g>
     </g>
    </g>
    <g id="ytick_16">
     <g id="line2d_113">
      <g>
       <use xlink:href="#m5510286d80" x="43.406904" y="76.332825" style="stroke: #000000; stroke-width: 0.5"/>
      </g>
     </g>
     <g id="line2d_114">
      <g>
       <use xlink:href="#m2a7a5f6b4d" x="713.006904" y="76.332825" style="stroke: #000000; stroke-width: 0.5"/>
      </g>
     </g>
    </g>
    <g id="ytick_17">
     <g id="line2d_115">
      <g>
       <use xlink:href="#m5510286d80" x="43.406904" y="65.178012" style="stroke: #000000; stroke-width: 0.5"/>
      </g>
     </g>
     <g id="line2d_116">
      <g>
       <use xlink:href="#m2a7a5f6b4d" x="713.006904" y="65.178012" style="stroke: #000000; stroke-width: 0.5"/>
      </g>
     </g>
    </g>
    <g id="ytick_18">
     <g id="line2d_117">
      <g>
       <use xlink:href="#m5510286d80" x="43.406904" y="42.868386" style="stroke: #000000; stroke-width: 0.5"/>
      </g>
     </g>
     <g id="line2d_118">
      <g>
       <use xlink:href="#m2a7a5f6b4d" x="713.006904" y="42.868386" style="stroke: #000000; stroke-width: 0.5"/>
      </g>
     </g>
    </g>
    <g id="ytick_19">
     <g id="line2d_119">
      <g>
       <use xlink:href="#m5510286d80" x="43.406904" y="31.713573" style="stroke: #000000; stroke-width: 0.5"/>
      </g>
     </g>
     <g id="line2d_120">
      <g>
       <use xlink:href="#m2a7a5f6b4d" x="713.006904" y="31.713573" style="stroke: #000000; stroke-width: 0.5"/>
      </g>
     </g>
    </g>
    <g id="text_15">
     <!-- $I\;[\mathrm{arb.\;u.}]$ -->
     <g transform="translate(22.126022 168.85959) rotate(-90) scale(0.2 -0.2)">
      <defs>
       <path id="CMSSI17-49" d="M 2042 4416 
L 1504 4416 
L 557 0 
L 1094 0 
L 2042 4416 
z
" transform="scale(0.015625)"/>
       <path id="CMSS17-61" d="M 2406 1789 
C 2406 2399 1978 2816 1402 2816 
C 1120 2816 813 2764 461 2559 
L 499 2133 
C 659 2250 934 2438 1395 2438 
C 1722 2438 1920 2185 1920 1782 
L 1920 1536 
C 896 1504 256 1209 256 711 
C 256 452 416 -64 947 -64 
C 1043 -64 1562 -52 1933 224 
L 1933 -13 
L 2406 -13 
L 2406 1789 
z
M 1920 824 
C 1920 711 1920 559 1728 446 
C 1562 339 1350 326 1261 326 
C 941 326 723 503 723 723 
C 723 1165 1722 1209 1920 1216 
L 1920 824 
z
" transform="scale(0.015625)"/>
       <path id="CMSS17-72" d="M 954 1369 
C 954 1974 1395 2379 1958 2392 
L 1958 2816 
C 1549 2809 1165 2604 934 2270 
L 934 2783 
L 480 2783 
L 480 0 
L 954 0 
L 954 1369 
z
" transform="scale(0.015625)"/>
       <path id="CMSS17-62" d="M 954 4416 
L 480 4416 
L 480 -13 
L 966 -13 
L 966 275 
C 1210 38 1504 -64 1766 -64 
C 2381 -64 2880 559 2880 1382 
C 2880 2133 2496 2816 1926 2816 
C 1523 2816 1165 2649 954 2476 
L 954 4416 
z
M 966 2095 
C 1107 2276 1306 2425 1587 2425 
C 1965 2425 2394 2146 2394 1382 
C 2394 566 1882 326 1530 326 
C 1402 326 1267 358 1139 468 
C 966 624 966 721 966 812 
L 966 2095 
z
" transform="scale(0.015625)"/>
       <path id="CMSS17-75" d="M 2618 2752 
L 2131 2752 
L 2131 976 
C 2131 500 1786 307 1421 307 
C 998 307 960 448 960 712 
L 960 2752 
L 474 2752 
L 474 680 
C 474 179 646 -64 1088 -64 
C 1306 -64 1798 -13 2144 307 
L 2144 -13 
L 2618 -13 
L 2618 2752 
z
" transform="scale(0.015625)"/>
      </defs>
      <use xlink:href="#CMSSI17-49" transform="scale(0.996264)"/>
      <use xlink:href="#CMSS17-5b" transform="translate(66.862288 0) scale(0.996264)"/>
      <use xlink:href="#CMSS17-61" transform="translate(94.047727 0) scale(0.996264)"/>
      <use xlink:href="#CMSS17-72" transform="translate(136.367194 0) scale(0.996264)"/>
      <use xlink:href="#CMSS17-62" transform="translate(168.276966 0) scale(0.996264)"/>
      <use xlink:href="#CMSS17-2e" transform="translate(216.481909 0) scale(0.996264)"/>
      <use xlink:href="#CMSS17-75" transform="translate(270.180123 0) scale(0.996264)"/>
      <use xlink:href="#CMSS17-2e" transform="translate(318.385066 0) scale(0.996264)"/>
      <use xlink:href="#CMSS17-5d" transform="translate(344.409271 0) scale(0.996264)"/>
     </g>
    </g>
    <g id="text_16">
     <!-- $\times\mathdefault{10^{4}}\mathdefault{}$ -->
     <g transform="translate(43.406904 17.820208) scale(0.15 -0.15)">
      <defs>
       <path id="CMSY10-2" d="M 2490 1775 
L 1210 3046 
C 1133 3123 1120 3136 1069 3136 
C 1005 3136 941 3078 941 3008 
C 941 2963 954 2950 1024 2880 
L 2304 1596 
L 1024 313 
C 954 243 941 230 941 185 
C 941 115 1005 57 1069 57 
C 1120 57 1133 70 1210 147 
L 2483 1418 
L 3808 95 
C 3821 89 3866 57 3904 57 
C 3981 57 4032 115 4032 185 
C 4032 198 4032 223 4013 255 
C 4006 268 2989 1271 2669 1596 
L 3840 2765 
C 3872 2803 3968 2886 4000 2925 
C 4006 2937 4032 2963 4032 3008 
C 4032 3078 3981 3136 3904 3136 
C 3853 3136 3827 3110 3757 3040 
L 2490 1775 
z
" transform="scale(0.015625)"/>
      </defs>
      <use xlink:href="#CMSY10-2" transform="scale(0.996264)"/>
      <use xlink:href="#CMSS17-31" transform="translate(77.487468 0) scale(0.996264)"/>
      <use xlink:href="#CMSS17-30" transform="translate(124.331091 0) scale(0.996264)"/>
      <use xlink:href="#CMSS17-34" transform="translate(171.174715 36.153639) scale(0.697382)"/>
     </g>
    </g>
   </g>
   <g id="line2d_121">
    <path d="M 43.406904 232.500208 
L 77.238619 232.500208 
L 77.573587 221.604517 
L 78.243522 221.256777 
L 78.578489 220.862994 
L 79.248424 220.60634 
L 80.923262 220.316341 
L 81.258229 220.075558 
L 81.928164 220.002733 
L 82.263132 219.807617 
L 82.598099 219.907294 
L 82.933067 219.684781 
L 83.603002 219.800262 
L 84.272937 219.676285 
L 85.277839 219.605215 
L 85.612807 219.686766 
L 86.617709 219.581911 
L 87.287644 218.6551 
L 87.622611 216.542662 
L 87.957579 211.597331 
L 88.627514 194.075469 
L 89.632416 144.26441 
L 89.967384 136.471122 
L 90.302351 124.65697 
L 90.972286 111.539624 
L 91.307254 113.539236 
L 91.642221 117.80062 
L 91.977189 117.352799 
L 92.312156 120.628789 
L 92.647124 128.835206 
L 93.652026 166.259359 
L 94.321961 199.48861 
L 94.991896 216.715624 
L 95.326864 219.776674 
L 95.661831 221.203992 
L 96.331766 222.121723 
L 96.666733 222.307891 
L 97.001701 222.321816 
L 97.671636 222.505627 
L 98.006603 222.451734 
L 98.341571 222.598942 
L 99.011506 222.578903 
L 99.346473 222.657456 
L 100.016408 222.634274 
L 101.691246 222.752954 
L 102.696148 222.844185 
L 103.031116 222.981911 
L 103.366083 222.934501 
L 104.370986 223.190029 
L 105.375888 223.416766 
L 106.38079 223.424478 
L 106.715758 223.222895 
L 107.050725 222.606498 
L 107.385693 220.415892 
L 108.055628 208.837392 
L 108.390595 191.612085 
L 110.065433 64.921563 
L 110.735368 39.545077 
L 111.070335 38.66204 
L 111.405303 30.900208 
L 111.74027 43.283836 
L 112.075238 38.327418 
L 112.410205 61.764148 
L 112.745173 71.704894 
L 113.415108 114.820924 
L 114.085043 163.888961 
L 114.42001 192.73321 
L 115.089945 217.954798 
L 115.424913 222.551532 
L 115.75988 224.488175 
L 116.094848 225.173921 
L 116.429815 225.526882 
L 117.09975 225.872123 
L 120.114457 226.224997 
L 121.454327 226.215562 
L 121.789295 226.147047 
L 122.124262 225.952311 
L 122.45923 225.608149 
L 122.794197 224.59871 
L 123.129165 221.785453 
L 123.464132 217.848866 
L 123.7991 211.102575 
L 125.473937 153.387798 
L 125.808905 150.151831 
L 126.47884 140.681082 
L 126.813807 138.388857 
L 127.148774 142.940467 
L 127.483742 141.503661 
L 128.488644 167.537165 
L 129.828514 212.727035 
L 130.163482 220.101607 
L 130.498449 223.460424 
L 130.833417 225.470862 
L 131.168384 226.114908 
L 131.838319 226.475291 
L 132.843222 226.624442 
L 134.853027 226.523203 
L 135.522962 226.119287 
L 135.857929 224.938798 
L 136.192897 222.893643 
L 137.197799 210.660985 
L 137.867734 194.700652 
L 138.202701 195.554017 
L 138.872636 186.910844 
L 139.207604 184.060455 
L 139.877539 175.382635 
L 140.212506 182.188097 
L 140.547474 186.184197 
L 140.882441 187.188331 
L 142.892246 220.813654 
L 143.562181 225.32386 
L 143.897149 226.058431 
L 144.232116 226.405368 
L 144.902051 226.564288 
L 145.906954 226.509703 
L 146.241921 226.376412 
L 146.576889 226.050103 
L 146.911856 225.150969 
L 147.246824 222.621832 
L 147.581791 218.534762 
L 148.251726 201.018314 
L 149.256628 161.10501 
L 150.261531 136.314776 
L 150.596498 132.148186 
L 150.931466 129.937302 
L 151.266433 133.072273 
L 151.601401 131.895953 
L 151.936368 139.98616 
L 152.271336 144.330781 
L 152.606303 152.979554 
L 154.281141 213.559229 
L 154.616108 220.25474 
L 154.951076 224.244554 
L 155.286043 225.941214 
L 155.621011 226.740688 
L 155.955978 227.009236 
L 156.290946 227.092074 
L 156.625913 227.05848 
L 156.960881 226.893382 
L 157.295848 226.163759 
L 157.965783 222.595656 
L 158.635718 213.096389 
L 159.64062 190.573996 
L 159.975588 187.951142 
L 160.645523 178.668352 
L 160.98049 178.931851 
L 161.315458 176.552239 
L 161.650425 177.632873 
L 161.985393 178.118197 
L 162.655328 186.011766 
L 162.990295 191.104563 
L 164.330165 219.079991 
L 165.0001 224.752461 
L 165.335068 226.656048 
L 165.670035 227.208439 
L 166.005003 227.450505 
L 167.344873 227.669786 
L 172.369385 227.77262 
L 175.384092 227.499943 
L 175.71906 227.140872 
L 176.054027 226.289742 
L 176.723962 222.933979 
L 177.393897 217.593965 
L 177.728865 214.14414 
L 178.063832 212.730812 
L 178.3988 211.881181 
L 179.068734 206.90752 
L 179.403702 208.405901 
L 179.738669 207.471173 
L 180.743572 210.091974 
L 181.078539 211.818014 
L 181.748474 217.822556 
L 182.753377 224.856922 
L 183.423312 226.635969 
L 183.758279 226.250321 
L 184.093247 224.924604 
L 184.428214 222.643095 
L 184.763182 218.729018 
L 185.098149 213.207988 
L 186.438019 181.695813 
L 186.772987 175.372685 
L 187.107954 172.485507 
L 187.442922 167.083164 
L 187.777889 168.539336 
L 188.112857 171.029603 
L 188.447824 171.457301 
L 188.782791 173.20352 
L 189.117759 176.549696 
L 189.452726 182.559419 
L 190.457629 210.166086 
L 190.792596 216.448834 
L 191.127564 220.57269 
L 191.797499 224.49004 
L 192.132466 224.267445 
L 192.802401 219.543277 
L 194.812206 186.88791 
L 195.147174 186.827652 
L 195.482141 187.116695 
L 195.817109 188.119379 
L 196.152076 185.33545 
L 196.487044 190.32801 
L 196.822011 191.386178 
L 197.156979 195.186912 
L 198.831816 221.520687 
L 199.166783 223.582986 
L 199.501751 224.243054 
L 199.836718 224.169167 
L 200.171686 223.005615 
L 200.841621 216.486671 
L 202.181491 204.250042 
L 202.516458 201.485031 
L 202.851426 201.913354 
L 203.186393 201.703376 
L 203.856328 203.019666 
L 204.191296 203.606833 
L 204.861231 209.215138 
L 205.531166 218.030395 
L 205.866133 221.397653 
L 206.536068 225.105676 
L 206.871036 226.016107 
L 207.206003 226.432372 
L 207.540971 226.534797 
L 208.880841 224.222898 
L 209.550775 223.483394 
L 209.885743 223.055415 
L 210.555678 223.353052 
L 210.890645 223.328465 
L 211.225613 223.707498 
L 212.565483 225.989601 
L 213.235418 226.364967 
L 213.570385 225.800927 
L 213.905353 225.459215 
L 214.24032 224.226438 
L 214.910255 220.644344 
L 215.245223 217.116077 
L 216.250125 212.07438 
L 216.585093 211.98816 
L 216.92006 210.902201 
L 217.255028 211.84292 
L 217.589995 212.38725 
L 218.25993 214.881601 
L 218.594898 216.278027 
L 219.264833 220.818415 
L 219.5998 222.425589 
L 219.934767 222.962625 
L 220.269735 222.84875 
L 220.604702 221.304189 
L 220.93967 218.730361 
L 221.609605 210.510812 
L 221.944572 204.850907 
L 222.949475 196.836865 
L 223.61941 195.282554 
L 223.954377 195.390845 
L 224.289345 196.384002 
L 224.624312 197.935503 
L 226.29915 219.724826 
L 226.634117 222.815031 
L 226.969085 224.726493 
L 227.63902 226.955519 
L 227.973987 227.406736 
L 228.308955 227.64546 
L 228.97889 227.746241 
L 231.993597 227.706769 
L 232.328564 227.570406 
L 232.663532 227.253176 
L 232.998499 227.108489 
L 233.668434 225.529523 
L 234.003402 225.558644 
L 234.673337 223.966165 
L 235.008304 223.609776 
L 235.343272 223.086706 
L 236.013207 222.511254 
L 236.348174 222.937781 
L 236.683142 222.555925 
L 238.023012 224.479025 
L 238.357979 224.429041 
L 239.027914 222.97516 
L 239.697849 218.693892 
L 240.032817 214.813081 
L 241.372686 205.410879 
L 241.707654 204.045485 
L 242.042621 204.044102 
L 242.377589 203.468201 
L 243.047524 205.499046 
L 243.382491 209.501126 
L 243.717459 211.898181 
L 244.387394 218.05409 
L 244.722361 219.698084 
L 245.392296 219.331247 
L 245.727264 216.746212 
L 246.062231 215.404288 
L 246.732166 211.079755 
L 247.737069 208.725353 
L 248.072036 208.682719 
L 248.407004 208.957083 
L 248.741971 210.295406 
L 249.076939 212.137329 
L 250.081841 220.217851 
L 250.416809 222.451397 
L 250.751776 223.30968 
L 251.086743 223.378193 
L 251.421711 223.32442 
L 251.756678 222.558332 
L 252.091646 222.418694 
L 252.761581 220.870934 
L 253.096548 221.119562 
L 253.431516 220.731997 
L 253.766483 220.020402 
L 254.101451 221.244281 
L 255.776288 224.549049 
L 256.111256 224.622967 
L 256.446223 224.303721 
L 257.116158 221.793424 
L 257.786093 219.513742 
L 258.121061 218.979225 
L 258.456028 217.708067 
L 258.790996 218.36982 
L 259.125963 218.556386 
L 259.460931 218.046103 
L 259.795898 219.416304 
L 260.130866 219.912774 
L 261.135768 222.175483 
L 261.470735 221.672869 
L 261.805703 220.510424 
L 262.475638 216.00966 
L 263.48054 209.497288 
L 263.815508 209.387413 
L 264.150475 208.361304 
L 264.485443 208.218188 
L 265.155378 211.363939 
L 265.490345 212.447159 
L 266.16028 218.029475 
L 266.495248 220.509936 
L 266.830215 221.899205 
L 267.165183 222.291665 
L 267.835118 221.678837 
L 268.170085 220.747145 
L 269.509955 219.071832 
L 269.844923 219.303241 
L 270.17989 220.306777 
L 270.514858 220.718778 
L 270.849825 221.90943 
L 271.51976 225.411557 
L 272.189695 227.150728 
L 272.524662 227.718577 
L 273.864532 228.33103 
L 274.869435 228.36569 
L 275.53937 228.246894 
L 276.209305 227.936275 
L 276.87924 227.180897 
L 278.21911 224.961054 
L 278.554077 224.62083 
L 278.889045 224.113841 
L 279.224012 224.129581 
L 279.55898 223.931304 
L 279.893947 223.969286 
L 280.228915 224.30997 
L 280.563882 224.44878 
L 280.89885 225.036983 
L 281.233817 225.373434 
L 281.568784 225.905233 
L 281.903752 225.970424 
L 282.238719 225.591185 
L 282.573687 225.398278 
L 282.908654 224.969663 
L 283.243622 224.97487 
L 283.578589 224.406147 
L 283.913557 224.39304 
L 284.248524 224.173252 
L 284.583492 224.177359 
L 285.253427 223.90965 
L 285.588394 223.737761 
L 285.923362 223.91693 
L 286.258329 223.391295 
L 286.593297 222.464694 
L 287.263232 219.22282 
L 287.933167 215.0981 
L 288.603102 212.754654 
L 288.938069 211.422201 
L 289.608004 211.867744 
L 289.942972 212.267245 
L 291.282842 220.737877 
L 291.617809 221.141575 
L 291.952776 221.838545 
L 292.287744 221.648512 
L 292.622711 221.667785 
L 293.292646 221.25101 
L 293.627614 221.313548 
L 293.962581 221.123363 
L 294.297549 221.470579 
L 294.632516 221.557778 
L 294.967484 222.524064 
L 295.637419 224.989722 
L 296.307354 226.875555 
L 296.642321 227.148169 
L 297.312256 227.960202 
L 297.982191 228.32336 
L 298.317159 228.39909 
L 298.987094 228.181098 
L 299.657029 227.336735 
L 300.326964 225.558479 
L 302.336768 217.222726 
L 302.671736 216.64737 
L 303.006703 217.092103 
L 303.341671 216.745155 
L 304.011606 218.52578 
L 305.016508 223.019142 
L 305.351476 223.879227 
L 305.686443 223.867126 
L 306.021411 224.176706 
L 306.356378 224.049612 
L 306.691346 224.314657 
L 307.026313 224.370302 
L 308.366183 225.439544 
L 308.701151 225.803934 
L 309.371086 227.035303 
L 310.041021 227.853013 
L 311.045923 228.410854 
L 312.050826 228.614588 
L 312.72076 228.483059 
L 315.065533 227.144131 
L 315.4005 226.749965 
L 315.735468 226.656516 
L 316.405403 226.106772 
L 317.075338 225.904644 
L 317.410305 225.307623 
L 317.745273 225.214036 
L 318.415208 224.261935 
L 318.750175 223.367002 
L 319.755078 221.607205 
L 320.090045 220.900354 
L 320.425013 220.908807 
L 321.094948 221.349154 
L 321.429915 222.045715 
L 321.764883 222.125697 
L 322.09985 222.767654 
L 322.769785 222.876431 
L 323.43972 222.151538 
L 323.774687 221.713564 
L 324.109655 221.867048 
L 324.444622 221.509766 
L 324.77959 221.784152 
L 325.114557 221.793625 
L 325.449525 222.142628 
L 326.11946 223.29027 
L 326.454427 223.743508 
L 326.789395 223.763667 
L 327.124362 223.401459 
L 327.794297 223.260157 
L 328.464232 223.100679 
L 328.7992 223.168632 
L 329.134167 223.662964 
L 329.469135 223.814042 
L 329.804102 224.293621 
L 330.13907 225.017845 
L 330.474037 225.389477 
L 331.143972 225.688769 
L 331.47894 225.749494 
L 331.813907 225.575644 
L 332.148875 225.668153 
L 332.81881 225.606275 
L 333.488744 225.931396 
L 334.158679 226.77345 
L 335.163582 227.16968 
L 335.833517 227.182176 
L 337.173387 226.853095 
L 337.508354 226.788107 
L 337.843322 226.507562 
L 338.178289 226.392776 
L 339.183192 225.193232 
L 340.523062 224.310423 
L 340.858029 224.444939 
L 341.527964 225.237292 
L 342.532867 227.430228 
L 343.872736 228.516954 
L 344.542671 228.786352 
L 344.877639 228.843529 
L 345.547574 228.677876 
L 346.217509 228.204898 
L 347.557379 227.440798 
L 348.562281 226.68418 
L 349.567184 225.866271 
L 349.902151 225.242432 
L 350.237119 224.925046 
L 350.572086 224.224062 
L 350.907054 224.035155 
L 351.576989 223.1618 
L 352.246924 222.989646 
L 352.581891 223.179023 
L 353.921761 225.643816 
L 355.596598 226.555075 
L 355.931566 226.6199 
L 356.601501 227.122473 
L 357.606403 227.696975 
L 358.276338 227.879682 
L 360.286143 228.170452 
L 361.960981 228.361742 
L 362.630916 228.195742 
L 363.635818 227.717344 
L 364.305753 227.254173 
L 365.310655 226.331925 
L 366.985493 225.209675 
L 367.32046 225.166184 
L 368.66033 226.327349 
L 370.335168 226.611681 
L 372.010005 228.165598 
L 372.344973 228.584818 
L 374.689745 229.332641 
L 376.364582 229.194227 
L 378.374387 228.559467 
L 379.044322 228.191501 
L 379.37929 228.124481 
L 380.71916 227.513965 
L 382.728965 226.57157 
L 383.063932 226.590103 
L 383.3989 226.316794 
L 384.068835 226.245479 
L 384.403802 226.144216 
L 385.743672 226.639247 
L 386.413607 226.946298 
L 387.083542 227.056787 
L 387.753477 227.303723 
L 389.428314 227.936201 
L 389.763282 228.150137 
L 390.098249 228.102675 
L 390.433217 228.234907 
L 390.768184 228.0773 
L 391.103152 228.17816 
L 393.112957 227.881107 
L 394.452827 227.472089 
L 396.127664 227.141142 
L 397.132566 227.22207 
L 398.137469 227.579336 
L 399.477339 228.787666 
L 401.152176 229.291497 
L 402.157079 229.147063 
L 405.171786 228.467447 
L 405.841721 228.453193 
L 410.866233 228.69393 
L 411.536168 228.581317 
L 412.541071 228.598688 
L 413.880941 228.85134 
L 416.225713 229.607049 
L 417.565583 229.482452 
L 418.570485 229.282168 
L 421.250225 228.399668 
L 423.26003 228.749581 
L 424.934868 229.4664 
L 425.93977 229.859427 
L 427.27964 230.055658 
L 428.284542 229.938894 
L 429.289445 229.537064 
L 431.29925 228.756593 
L 433.309055 228.503452 
L 433.97899 228.637337 
L 437.998599 229.732485 
L 439.003502 229.752283 
L 440.678339 229.464074 
L 441.683242 229.086874 
L 444.362982 229.239016 
L 445.032917 229.133048 
L 445.702852 229.30856 
L 447.042721 229.8831 
L 448.047624 230.067357 
L 452.402201 230.150242 
L 454.077039 229.947916 
L 455.416909 229.597498 
L 456.086844 229.36804 
L 458.766583 229.363616 
L 460.106453 229.568703 
L 461.111356 229.918389 
L 462.786193 230.048528 
L 466.135868 229.922483 
L 470.155478 230.468544 
L 471.495348 230.577918 
L 473.505153 230.516416 
L 476.51986 230.187528 
L 485.563982 230.545315 
L 486.903852 230.527805 
L 488.913657 230.418505 
L 494.273137 230.736031 
L 495.613007 230.524758 
L 496.952877 230.364373 
L 500.637519 230.438154 
L 504.322161 230.896432 
L 505.996999 230.868383 
L 509.681641 230.73863 
L 513.701251 231.046831 
L 516.380991 231.056786 
L 520.4006 230.94625 
L 525.090145 230.957794 
L 526.764983 230.98698 
L 528.43982 231.017066 
L 529.77969 231.082851 
L 533.7993 231.2248 
L 537.148975 231.138562 
L 541.838519 231.255605 
L 543.848324 231.326079 
L 549.207804 231.36568 
L 554.232316 231.471752 
L 558.251926 231.464446 
L 571.985593 231.683921 
L 575.670235 231.723843 
L 582.034617 231.812713 
L 584.044422 231.856833 
L 587.394097 231.909282 
L 590.408805 231.928048 
L 634.624512 232.397733 
L 713.006904 232.500208 
L 713.006904 232.500208 
" clip-path="url(#p762e97a0e1)" style="fill: none; stroke: #0b3c5d; stroke-linecap: round"/>
   </g>
   <g id="patch_3">
    <path d="M 43.406904 242.580208 
L 43.406904 20.820208 
" style="fill: none; stroke: #000000; stroke-width: 2.5; stroke-linejoin: miter; stroke-linecap: square"/>
   </g>
   <g id="patch_4">
    <path d="M 713.006904 242.580208 
L 713.006904 20.820208 
" style="fill: none; stroke: #000000; stroke-width: 2.5; stroke-linejoin: miter; stroke-linecap: square"/>
   </g>
   <g id="patch_5">
    <path d="M 43.406904 242.580208 
L 713.006904 242.580208 
" style="fill: none; stroke: #000000; stroke-width: 2.5; stroke-linejoin: miter; stroke-linecap: square"/>
   </g>
   <g id="patch_6">
    <path d="M 43.406904 20.820208 
L 713.006904 20.820208 
" style="fill: none; stroke: #000000; stroke-width: 2.5; stroke-linejoin: miter; stroke-linecap: square"/>
   </g>
  </g>
 </g>
 <defs>
  <clipPath id="p762e97a0e1">
   <rect x="43.406904" y="20.820208" width="669.6" height="221.76"/>
  </clipPath>
 </defs>
</svg>
